<svg width="111" height="46" viewBox="0 0 111 46" fill="none" xmlns="http://www.w3.org/2000/svg">
<g clip-path="url(#clip0)">
<path d="M13.4207 10.0947L0.0605469 16.1845L13.4225 22.2808L26.7816 16.1845L13.4207 10.0947Z" fill="white"/>
<path d="M13.4213 14.0662L8.76953 16.187L13.4213 18.3093L18.0742 16.187L13.4213 14.0662Z" fill="#FF1744"/>
<path d="M13.4336 22.2808L0.0737305 16.1845V31.8865L13.4327 37.9826L26.7926 31.8865V16.1845L13.4336 22.2808Z" fill="#050709" stroke="white"/>
</g>
<path d="M40.6037 21.6719H42.125C42.0952 20.1974 40.8381 19.1534 38.9801 19.1534C37.1477 19.1534 35.7713 20.1847 35.7756 21.7273C35.7756 22.9801 36.6662 23.7003 38.1023 24.071L39.0952 24.3267C40.0369 24.5653 40.6591 24.8594 40.6634 25.5369C40.6591 26.2827 39.9517 26.7812 38.9205 26.7812C37.9318 26.7812 37.1648 26.3381 37.1009 25.4219H35.5455C35.6094 27.1562 36.9006 28.1321 38.9332 28.1321C41.0256 28.1321 42.2401 27.0881 42.2443 25.5497C42.2401 24.0369 40.9915 23.3466 39.679 23.0355L38.8608 22.831C38.1449 22.6605 37.3693 22.358 37.3778 21.6293C37.3821 20.973 37.9702 20.4915 38.9588 20.4915C39.9006 20.4915 40.5227 20.9304 40.6037 21.6719ZM47.7575 25.2472C47.7575 26.2443 47.0458 26.7386 46.364 26.7386C45.6225 26.7386 45.1282 26.2145 45.1282 25.3835V21.4545H43.5856V25.6222C43.5856 27.1946 44.4805 28.0852 45.7674 28.0852C46.7475 28.0852 47.4379 27.5696 47.7362 26.8366H47.8043V28H49.3001V21.4545H47.7575V25.2472ZM56.0597 23.1847C55.8466 22.0767 54.9602 21.3693 53.4261 21.3693C51.8494 21.3693 50.7756 22.1449 50.7798 23.3551C50.7756 24.3097 51.3636 24.9403 52.6207 25.2003L53.7372 25.4347C54.3381 25.5668 54.6193 25.8097 54.6193 26.1804C54.6193 26.6278 54.1335 26.9645 53.4006 26.9645C52.6932 26.9645 52.233 26.6577 52.1009 26.0696L50.5966 26.2145C50.7884 27.4162 51.7983 28.1278 53.4048 28.1278C55.0412 28.1278 56.196 27.2798 56.2003 26.0398C56.196 25.1065 55.5952 24.5355 54.3594 24.267L53.2429 24.0284C52.5781 23.8793 52.3139 23.6491 52.3182 23.2699C52.3139 22.8267 52.804 22.5199 53.4474 22.5199C54.1591 22.5199 54.5341 22.9077 54.6534 23.3381L56.0597 23.1847ZM59.0149 24.1648C59.0149 23.2188 59.603 22.6733 60.4297 22.6733C61.2393 22.6733 61.7166 23.1889 61.7166 24.071V28H63.2592V23.8324C63.2592 22.2514 62.3643 21.3693 61.005 21.3693C59.9993 21.3693 59.3601 21.8253 59.0575 22.5668H58.9808V19.2727H57.4723V28H59.0149V24.1648ZM64.8317 28H66.3743V21.4545H64.8317V28ZM65.6072 20.5256C66.0973 20.5256 66.4979 20.1506 66.4979 19.6903C66.4979 19.2259 66.0973 18.8509 65.6072 18.8509C65.1129 18.8509 64.7124 19.2259 64.7124 19.6903C64.7124 20.1506 65.1129 20.5256 65.6072 20.5256ZM72.7717 21.6719H74.293C74.2631 20.1974 73.006 19.1534 71.1481 19.1534C69.3157 19.1534 67.9393 20.1847 67.9435 21.7273C67.9435 22.9801 68.8342 23.7003 70.2702 24.071L71.2631 24.3267C72.2049 24.5653 72.8271 24.8594 72.8313 25.5369C72.8271 26.2827 72.1197 26.7812 71.0884 26.7812C70.0998 26.7812 69.3327 26.3381 69.2688 25.4219H67.7134C67.7773 27.1562 69.0685 28.1321 71.1012 28.1321C73.1935 28.1321 74.408 27.0881 74.4123 25.5497C74.408 24.0369 73.1594 23.3466 71.8469 23.0355L71.0288 22.831C70.3129 22.6605 69.5373 22.358 69.5458 21.6293C69.5501 20.973 70.1381 20.4915 71.1268 20.4915C72.0685 20.4915 72.6907 20.9304 72.7717 21.6719ZM77.1044 28H78.7152L79.9425 23.5767H80.032L81.2592 28H82.8658L84.7195 21.4545H83.1428L82.0092 26.0312H81.9453L80.7692 21.4545H79.2138L78.0376 26.0568H77.978L76.8274 21.4545H75.255L77.1044 28ZM87.68 28.1321C88.707 28.1321 89.3207 27.6506 89.6019 27.1009H89.6531V28H91.136V23.6193C91.136 21.8892 89.7255 21.3693 88.4769 21.3693C87.1005 21.3693 86.0437 21.983 85.7028 23.1761L87.1431 23.3807C87.2965 22.9332 87.7312 22.5497 88.4854 22.5497C89.2013 22.5497 89.5934 22.9162 89.5934 23.5597V23.5852C89.5934 24.0284 89.1289 24.0497 87.9741 24.1733C86.7042 24.3097 85.4897 24.6889 85.4897 26.1634C85.4897 27.4503 86.4315 28.1321 87.68 28.1321ZM88.0806 26.9986C87.4371 26.9986 86.9769 26.7045 86.9769 26.1378C86.9769 25.5455 87.4925 25.2983 88.1829 25.2003C88.5877 25.1449 89.3974 25.0426 89.5977 24.8807V25.652C89.5977 26.3807 89.0096 26.9986 88.0806 26.9986ZM92.6871 30.4545H94.2298V26.9688H94.2937C94.5366 27.446 95.0437 28.1151 96.1687 28.1151C97.7113 28.1151 98.8661 26.892 98.8661 24.7358C98.8661 22.554 97.6772 21.3693 96.1644 21.3693C95.0096 21.3693 94.5281 22.0639 94.2937 22.5369H94.2042V21.4545H92.6871V30.4545ZM94.1999 24.7273C94.1999 23.4574 94.7454 22.6349 95.7383 22.6349C96.7653 22.6349 97.2937 23.5085 97.2937 24.7273C97.2937 25.9545 96.7567 26.8494 95.7383 26.8494C94.7539 26.8494 94.1999 25.9972 94.1999 24.7273Z" fill="white"/>
<defs>
<clipPath id="clip0">
<rect width="27" height="28" fill="white" transform="translate(0 10)"/>
</clipPath>
</defs>
</svg>
