<svg width="89" height="15" viewBox="0 0 89 15" fill="none" xmlns="http://www.w3.org/2000/svg">
<path d="M6.78 14.62C6.42 14.62 6.15333 14.4267 5.98 14.04L0.36 1.06C0.266667 0.819999 0.28 0.633332 0.4 0.499999C0.52 0.353333 0.68 0.279999 0.88 0.279999C1.06667 0.279999 1.20667 0.319999 1.3 0.399999C1.39333 0.479999 1.48 0.599999 1.56 0.759999L6.8 12.96L12.04 0.759999C12.1867 0.439999 12.4133 0.279999 12.72 0.279999C12.9333 0.279999 13.0867 0.353333 13.18 0.499999C13.2733 0.646666 13.2733 0.833333 13.18 1.06L7.56 14.04C7.48 14.24 7.38 14.3867 7.26 14.48C7.14 14.5733 6.98 14.62 6.78 14.62ZM15.9895 2.3C15.4029 2.3 15.1095 2.02 15.1095 1.46C15.1095 0.913333 15.4029 0.64 15.9895 0.64C16.5762 0.64 16.8695 0.913333 16.8695 1.46C16.8695 2.02 16.5762 2.3 15.9895 2.3ZM15.9895 14.58C15.5762 14.58 15.3695 14.36 15.3695 13.92V5.36C15.3695 4.93333 15.5762 4.72 15.9895 4.72C16.3895 4.72 16.5895 4.93333 16.5895 5.36V13.92C16.5895 14.36 16.3895 14.58 15.9895 14.58ZM24.0231 14.66C22.5298 14.66 21.3498 14.22 20.4831 13.34C19.6298 12.4467 19.2031 11.2267 19.2031 9.68C19.2031 8.68 19.3965 7.8 19.7831 7.04C20.1698 6.28 20.7031 5.68667 21.3831 5.26C22.0765 4.83333 22.8698 4.62 23.7631 4.62C25.0565 4.62 26.0631 5.04 26.7831 5.88C27.5031 6.72 27.8631 7.87333 27.8631 9.34C27.8631 9.71333 27.6765 9.9 27.3031 9.9H20.4031C20.4431 11.1 20.7698 12.0267 21.3831 12.68C22.0098 13.32 22.8765 13.64 23.9831 13.64C24.4765 13.64 24.9498 13.58 25.4031 13.46C25.8698 13.3267 26.3231 13.0933 26.7631 12.76C27.0031 12.6 27.2098 12.5667 27.3831 12.66C27.5565 12.74 27.6498 12.88 27.6631 13.08C27.6898 13.2667 27.5898 13.44 27.3631 13.6C26.9365 13.9467 26.4165 14.2133 25.8031 14.4C25.2031 14.5733 24.6098 14.66 24.0231 14.66ZM23.7831 5.6C22.7698 5.6 21.9765 5.92 21.4031 6.56C20.8431 7.18667 20.5165 8 20.4231 9H26.7631C26.7365 7.93333 26.4698 7.1 25.9631 6.5C25.4565 5.9 24.7298 5.6 23.7831 5.6ZM33.4128 14.62C33.0261 14.62 32.7528 14.4133 32.5928 14L29.5728 5.58C29.4661 5.28667 29.4661 5.06 29.5728 4.9C29.6928 4.74 29.8661 4.66 30.0928 4.66C30.3861 4.66 30.5928 4.83333 30.7128 5.18L33.4328 13.06L36.2528 5.24C36.3861 4.85333 36.6395 4.66 37.0128 4.66C37.3861 4.66 37.6461 4.85333 37.7928 5.24L40.5328 13.08L43.3328 5.16C43.3995 4.97333 43.4795 4.84667 43.5728 4.78C43.6661 4.7 43.7928 4.66 43.9528 4.66C44.2195 4.66 44.3795 4.76 44.4328 4.96C44.4995 5.14667 44.4928 5.35333 44.4128 5.58L41.3728 14C41.2128 14.4133 40.9395 14.62 40.5528 14.62C40.1528 14.62 39.8795 14.4133 39.7328 14L36.9928 6.38L34.2528 14C34.0928 14.4133 33.8128 14.62 33.4128 14.62ZM47.852 14.5C47.3987 14.5 47.172 14.2667 47.172 13.8V1.1C47.172 0.633333 47.3987 0.399999 47.852 0.399999H52.552C53.992 0.399999 55.1054 0.719999 55.892 1.36C56.692 2 57.092 2.91333 57.092 4.1C57.092 4.87333 56.8854 5.53333 56.472 6.08C56.0587 6.62667 55.4987 7.02667 54.792 7.28C55.6054 7.48 56.2454 7.87333 56.712 8.46C57.1787 9.03333 57.412 9.76667 57.412 10.66C57.412 11.9133 57.012 12.8667 56.212 13.52C55.412 14.1733 54.2787 14.5 52.812 14.5H47.852ZM48.372 6.84H52.412C53.532 6.84 54.3854 6.61333 54.972 6.16C55.5587 5.69333 55.852 5.02 55.852 4.14C55.852 3.26 55.5587 2.59333 54.972 2.14C54.3854 1.67333 53.532 1.44 52.412 1.44H48.372V6.84ZM48.372 13.46H52.712C55.0187 13.46 56.172 12.5333 56.172 10.68C56.172 9.72 55.8854 9.01333 55.312 8.56C54.7387 8.10667 53.872 7.88 52.712 7.88H48.372V13.46ZM63.35 14.66C62.6967 14.66 62.11 14.5333 61.59 14.28C61.0833 14.0267 60.6767 13.68 60.37 13.24C60.0767 12.8 59.93 12.3067 59.93 11.76C59.93 11.04 60.11 10.48 60.47 10.08C60.83 9.66667 61.4367 9.37333 62.29 9.2C63.1433 9.02667 64.3167 8.94 65.81 8.94H66.43V8.22C66.43 7.32667 66.25 6.68 65.89 6.28C65.53 5.86667 64.9567 5.66 64.17 5.66C63.6633 5.66 63.17 5.72667 62.69 5.86C62.21 5.99333 61.71 6.20667 61.19 6.5C60.95 6.63333 60.7567 6.64 60.61 6.52C60.4767 6.38667 60.41 6.22 60.41 6.02C60.4233 5.80667 60.5367 5.64667 60.75 5.54C61.2967 5.23333 61.8633 5.00667 62.45 4.86C63.0367 4.7 63.6033 4.62 64.15 4.62C65.3233 4.62 66.19 4.92 66.75 5.52C67.3233 6.12 67.61 7.04 67.61 8.28V14C67.61 14.4133 67.4233 14.62 67.05 14.62C66.65 14.62 66.45 14.4133 66.45 14V12.76C66.1833 13.36 65.7767 13.8267 65.23 14.16C64.6967 14.4933 64.07 14.66 63.35 14.66ZM63.51 13.68C64.0833 13.68 64.5833 13.5467 65.01 13.28C65.45 13 65.7967 12.62 66.05 12.14C66.3033 11.66 66.43 11.1133 66.43 10.5V9.84H65.83C64.63 9.84 63.69 9.89333 63.01 10C62.3433 10.1067 61.8767 10.2933 61.61 10.56C61.3433 10.8267 61.21 11.1933 61.21 11.66C61.21 12.26 61.4167 12.7467 61.83 13.12C62.2433 13.4933 62.8033 13.68 63.51 13.68ZM73.9592 14.66C73.3592 14.66 72.7592 14.58 72.1592 14.42C71.5726 14.26 71.0126 13.9867 70.4792 13.6C70.3059 13.4933 70.2259 13.3467 70.2392 13.16C70.2526 12.96 70.3259 12.8067 70.4592 12.7C70.6059 12.5933 70.7859 12.6067 70.9992 12.74C71.5192 13.0867 72.0259 13.3267 72.5192 13.46C73.0126 13.5933 73.5059 13.66 73.9992 13.66C74.8259 13.66 75.4459 13.5133 75.8592 13.22C76.2859 12.9133 76.4992 12.4933 76.4992 11.96C76.4992 11.5467 76.3592 11.22 76.0792 10.98C75.7992 10.74 75.3592 10.5467 74.7592 10.4L73.0192 10C71.3792 9.62667 70.5592 8.78 70.5592 7.46C70.5592 6.60667 70.8926 5.92 71.5592 5.4C72.2259 4.88 73.1059 4.62 74.1992 4.62C74.7726 4.62 75.3259 4.70667 75.8592 4.88C76.4059 5.05333 76.8792 5.32 77.2792 5.68C77.4526 5.81333 77.5259 5.97333 77.4992 6.16C77.4726 6.34667 77.3792 6.48667 77.2192 6.58C77.0726 6.67333 76.8992 6.64667 76.6992 6.5C76.3126 6.20667 75.9059 5.99333 75.4792 5.86C75.0526 5.71333 74.6192 5.64 74.1792 5.64C73.4059 5.64 72.8059 5.8 72.3792 6.12C71.9659 6.44 71.7592 6.87333 71.7592 7.42C71.7592 7.83333 71.8859 8.16667 72.1392 8.42C72.3926 8.67333 72.8059 8.86667 73.3792 9L75.1192 9.4C75.9859 9.6 76.6326 9.9 77.0592 10.3C77.4859 10.6867 77.6992 11.2133 77.6992 11.88C77.6992 12.7467 77.3592 13.4267 76.6792 13.92C75.9992 14.4133 75.0926 14.66 73.9592 14.66ZM84.57 14.66C83.0767 14.66 81.8967 14.22 81.03 13.34C80.1767 12.4467 79.75 11.2267 79.75 9.68C79.75 8.68 79.9433 7.8 80.33 7.04C80.7167 6.28 81.25 5.68667 81.93 5.26C82.6233 4.83333 83.4167 4.62 84.31 4.62C85.6033 4.62 86.61 5.04 87.33 5.88C88.05 6.72 88.41 7.87333 88.41 9.34C88.41 9.71333 88.2233 9.9 87.85 9.9H80.95C80.99 11.1 81.3167 12.0267 81.93 12.68C82.5567 13.32 83.4233 13.64 84.53 13.64C85.0233 13.64 85.4967 13.58 85.95 13.46C86.4167 13.3267 86.87 13.0933 87.31 12.76C87.55 12.6 87.7567 12.5667 87.93 12.66C88.1033 12.74 88.1967 12.88 88.21 13.08C88.2367 13.2667 88.1367 13.44 87.91 13.6C87.4833 13.9467 86.9633 14.2133 86.35 14.4C85.75 14.5733 85.1567 14.66 84.57 14.66ZM84.33 5.6C83.3167 5.6 82.5233 5.92 81.95 6.56C81.39 7.18667 81.0633 8 80.97 9H87.31C87.2833 7.93333 87.0167 7.1 86.51 6.5C86.0033 5.9 85.2767 5.6 84.33 5.6Z" fill="white"/>
</svg>
