<svg width="744" height="479" viewBox="0 0 744 479" fill="none" xmlns="http://www.w3.org/2000/svg">
<g filter="url(#filter0_dd)">
<rect width="730" height="465" transform="translate(7 4)" fill="#09090A" fill-opacity="0.76"/>
<path d="M51 57.324H47.064V56.3H56.12V57.324H52.184V67.5H51V57.324ZM60.3365 67.58C59.5258 67.58 58.7952 67.3987 58.1445 67.036C57.4938 66.6627 56.9818 66.1507 56.6085 65.5C56.2352 64.8493 56.0485 64.1133 56.0485 63.292C56.0485 62.4707 56.2352 61.7347 56.6085 61.084C56.9818 60.4333 57.4938 59.9267 58.1445 59.564C58.7952 59.2013 59.5258 59.02 60.3365 59.02C61.1472 59.02 61.8778 59.2013 62.5285 59.564C63.1792 59.9267 63.6858 60.4333 64.0485 61.084C64.4218 61.7347 64.6085 62.4707 64.6085 63.292C64.6085 64.1133 64.4218 64.8493 64.0485 65.5C63.6858 66.1507 63.1792 66.6627 62.5285 67.036C61.8778 67.3987 61.1472 67.58 60.3365 67.58ZM60.3365 66.572C60.9338 66.572 61.4672 66.4387 61.9365 66.172C62.4165 65.8947 62.7898 65.5053 63.0565 65.004C63.3232 64.5027 63.4565 63.932 63.4565 63.292C63.4565 62.652 63.3232 62.0813 63.0565 61.58C62.7898 61.0787 62.4165 60.6947 61.9365 60.428C61.4672 60.1507 60.9338 60.012 60.3365 60.012C59.7392 60.012 59.2005 60.1507 58.7205 60.428C58.2512 60.6947 57.8778 61.0787 57.6005 61.58C57.3338 62.0813 57.2005 62.652 57.2005 63.292C57.2005 63.932 57.3338 64.5027 57.6005 65.004C57.8778 65.5053 58.2512 65.8947 58.7205 66.172C59.2005 66.4387 59.7392 66.572 60.3365 66.572ZM71.3598 66.988C71.1464 67.18 70.8798 67.3293 70.5598 67.436C70.2504 67.532 69.9251 67.58 69.5838 67.58C68.7944 67.58 68.1864 67.3667 67.7598 66.94C67.3331 66.5133 67.1198 65.9107 67.1198 65.132V60.044H65.6158V59.084H67.1198V57.244H68.2558V59.084H70.8158V60.044H68.2558V65.068C68.2558 65.5693 68.3784 65.9533 68.6238 66.22C68.8798 66.476 69.2424 66.604 69.7118 66.604C69.9464 66.604 70.1704 66.5667 70.3838 66.492C70.6078 66.4173 70.7998 66.3107 70.9598 66.172L71.3598 66.988ZM76.3718 59.02C77.4704 59.02 78.3131 59.2973 78.8998 59.852C79.4864 60.396 79.7798 61.2067 79.7798 62.284V67.5H78.6918V66.188C78.4358 66.6253 78.0571 66.9667 77.5558 67.212C77.0651 67.4573 76.4784 67.58 75.7958 67.58C74.8571 67.58 74.1104 67.356 73.5558 66.908C73.0011 66.46 72.7238 65.868 72.7238 65.132C72.7238 64.4173 72.9798 63.8413 73.4918 63.404C74.0144 62.9667 74.8411 62.748 75.9718 62.748H78.6438V62.236C78.6438 61.5107 78.4411 60.9613 78.0358 60.588C77.6304 60.204 77.0384 60.012 76.2598 60.012C75.7264 60.012 75.2144 60.1027 74.7238 60.284C74.2331 60.4547 73.8118 60.6947 73.4598 61.004L72.9478 60.156C73.3744 59.7933 73.8864 59.516 74.4838 59.324C75.0811 59.1213 75.7104 59.02 76.3718 59.02ZM75.9718 66.684C76.6118 66.684 77.1611 66.54 77.6198 66.252C78.0784 65.9533 78.4198 65.5267 78.6438 64.972V63.596H76.0038C74.5638 63.596 73.8438 64.0973 73.8438 65.1C73.8438 65.5907 74.0304 65.98 74.4038 66.268C74.7771 66.5453 75.2998 66.684 75.9718 66.684ZM82.8653 55.628H84.0013V67.5H82.8653V55.628ZM100.902 56.3L95.9416 67.5H94.7736L89.8136 56.3H91.0936L95.3816 66.028L99.7016 56.3H100.902ZM104.591 59.02C105.689 59.02 106.532 59.2973 107.119 59.852C107.705 60.396 107.999 61.2067 107.999 62.284V67.5H106.911V66.188C106.655 66.6253 106.276 66.9667 105.775 67.212C105.284 67.4573 104.697 67.58 104.015 67.58C103.076 67.58 102.329 67.356 101.775 66.908C101.22 66.46 100.943 65.868 100.943 65.132C100.943 64.4173 101.199 63.8413 101.711 63.404C102.233 62.9667 103.06 62.748 104.191 62.748H106.863V62.236C106.863 61.5107 106.66 60.9613 106.255 60.588C105.849 60.204 105.257 60.012 104.479 60.012C103.945 60.012 103.433 60.1027 102.943 60.284C102.452 60.4547 102.031 60.6947 101.679 61.004L101.167 60.156C101.593 59.7933 102.105 59.516 102.703 59.324C103.3 59.1213 103.929 59.02 104.591 59.02ZM104.191 66.684C104.831 66.684 105.38 66.54 105.839 66.252C106.297 65.9533 106.639 65.5267 106.863 64.972V63.596H104.223C102.783 63.596 102.062 64.0973 102.062 65.1C102.062 65.5907 102.249 65.98 102.623 66.268C102.996 66.5453 103.519 66.684 104.191 66.684ZM111.084 55.628H112.22V67.5H111.084V55.628ZM122.965 59.084V67.5H121.877V65.964C121.578 66.476 121.168 66.876 120.645 67.164C120.122 67.4413 119.525 67.58 118.853 67.58C117.754 67.58 116.885 67.276 116.245 66.668C115.616 66.0493 115.301 65.148 115.301 63.964V59.084H116.437V63.852C116.437 64.7373 116.656 65.4093 117.093 65.868C117.53 66.3267 118.154 66.556 118.965 66.556C119.85 66.556 120.549 66.2893 121.061 65.756C121.573 65.212 121.829 64.46 121.829 63.5V59.084H122.965ZM133.475 63.644H126.435C126.499 64.5187 126.835 65.228 127.443 65.772C128.051 66.3053 128.819 66.572 129.747 66.572C130.269 66.572 130.749 66.4813 131.187 66.3C131.624 66.108 132.003 65.8307 132.323 65.468L132.963 66.204C132.589 66.652 132.12 66.9933 131.555 67.228C131 67.4627 130.387 67.58 129.715 67.58C128.851 67.58 128.083 67.3987 127.411 67.036C126.749 66.6627 126.232 66.1507 125.859 65.5C125.485 64.8493 125.299 64.1133 125.299 63.292C125.299 62.4707 125.475 61.7347 125.827 61.084C126.189 60.4333 126.68 59.9267 127.299 59.564C127.928 59.2013 128.632 59.02 129.411 59.02C130.189 59.02 130.888 59.2013 131.507 59.564C132.125 59.9267 132.611 60.4333 132.963 61.084C133.315 61.724 133.491 62.46 133.491 63.292L133.475 63.644ZM129.411 59.996C128.6 59.996 127.917 60.2573 127.363 60.78C126.819 61.292 126.509 61.964 126.435 62.796H132.403C132.328 61.964 132.013 61.292 131.459 60.78C130.915 60.2573 130.232 59.996 129.411 59.996ZM140.23 56.3H141.414V66.476H147.686V67.5H140.23V56.3ZM152.727 67.58C151.916 67.58 151.186 67.3987 150.535 67.036C149.884 66.6627 149.372 66.1507 148.999 65.5C148.626 64.8493 148.439 64.1133 148.439 63.292C148.439 62.4707 148.626 61.7347 148.999 61.084C149.372 60.4333 149.884 59.9267 150.535 59.564C151.186 59.2013 151.916 59.02 152.727 59.02C153.538 59.02 154.268 59.2013 154.919 59.564C155.57 59.9267 156.076 60.4333 156.439 61.084C156.812 61.7347 156.999 62.4707 156.999 63.292C156.999 64.1133 156.812 64.8493 156.439 65.5C156.076 66.1507 155.57 66.6627 154.919 67.036C154.268 67.3987 153.538 67.58 152.727 67.58ZM152.727 66.572C153.324 66.572 153.858 66.4387 154.327 66.172C154.807 65.8947 155.18 65.5053 155.447 65.004C155.714 64.5027 155.847 63.932 155.847 63.292C155.847 62.652 155.714 62.0813 155.447 61.58C155.18 61.0787 154.807 60.6947 154.327 60.428C153.858 60.1507 153.324 60.012 152.727 60.012C152.13 60.012 151.591 60.1507 151.111 60.428C150.642 60.6947 150.268 61.0787 149.991 61.58C149.724 62.0813 149.591 62.652 149.591 63.292C149.591 63.932 149.724 64.5027 149.991 65.004C150.268 65.5053 150.642 65.8947 151.111 66.172C151.591 66.4387 152.13 66.572 152.727 66.572ZM162.806 67.58C161.974 67.58 161.228 67.3987 160.566 67.036C159.916 66.6733 159.404 66.1667 159.03 65.516C158.657 64.8547 158.47 64.1133 158.47 63.292C158.47 62.4707 158.657 61.7347 159.03 61.084C159.404 60.4333 159.916 59.9267 160.566 59.564C161.228 59.2013 161.974 59.02 162.806 59.02C163.532 59.02 164.177 59.164 164.742 59.452C165.318 59.7293 165.772 60.14 166.102 60.684L165.254 61.26C164.977 60.844 164.625 60.5347 164.198 60.332C163.772 60.1187 163.308 60.012 162.806 60.012C162.198 60.012 161.649 60.1507 161.158 60.428C160.678 60.6947 160.3 61.0787 160.022 61.58C159.756 62.0813 159.622 62.652 159.622 63.292C159.622 63.9427 159.756 64.5187 160.022 65.02C160.3 65.5107 160.678 65.8947 161.158 66.172C161.649 66.4387 162.198 66.572 162.806 66.572C163.308 66.572 163.772 66.4707 164.198 66.268C164.625 66.0653 164.977 65.756 165.254 65.34L166.102 65.916C165.772 66.46 165.318 66.876 164.742 67.164C164.166 67.4413 163.521 67.58 162.806 67.58ZM171.329 63.276L169.345 65.1V67.5H168.209V55.628H169.345V63.676L174.369 59.084H175.777L172.177 62.524L176.113 67.5H174.721L171.329 63.276ZM184.803 63.644H177.763C177.827 64.5187 178.163 65.228 178.771 65.772C179.379 66.3053 180.147 66.572 181.075 66.572C181.597 66.572 182.077 66.4813 182.515 66.3C182.952 66.108 183.331 65.8307 183.651 65.468L184.291 66.204C183.917 66.652 183.448 66.9933 182.883 67.228C182.328 67.4627 181.715 67.58 181.043 67.58C180.179 67.58 179.411 67.3987 178.739 67.036C178.077 66.6627 177.56 66.1507 177.187 65.5C176.813 64.8493 176.627 64.1133 176.627 63.292C176.627 62.4707 176.803 61.7347 177.155 61.084C177.517 60.4333 178.008 59.9267 178.627 59.564C179.256 59.2013 179.96 59.02 180.739 59.02C181.517 59.02 182.216 59.2013 182.835 59.564C183.453 59.9267 183.939 60.4333 184.291 61.084C184.643 61.724 184.819 62.46 184.819 63.292L184.803 63.644ZM180.739 59.996C179.928 59.996 179.245 60.2573 178.691 60.78C178.147 61.292 177.837 61.964 177.763 62.796H183.731C183.656 61.964 183.341 61.292 182.787 60.78C182.243 60.2573 181.56 59.996 180.739 59.996ZM194.811 55.628V67.5H193.723V65.836C193.382 66.4013 192.928 66.8333 192.363 67.132C191.808 67.4307 191.179 67.58 190.475 67.58C189.686 67.58 188.971 67.3987 188.331 67.036C187.691 66.6733 187.19 66.1667 186.827 65.516C186.464 64.8653 186.283 64.124 186.283 63.292C186.283 62.46 186.464 61.7187 186.827 61.068C187.19 60.4173 187.691 59.916 188.331 59.564C188.971 59.2013 189.686 59.02 190.475 59.02C191.158 59.02 191.771 59.164 192.315 59.452C192.87 59.7293 193.323 60.14 193.675 60.684V55.628H194.811ZM190.571 66.572C191.158 66.572 191.686 66.4387 192.155 66.172C192.635 65.8947 193.008 65.5053 193.275 65.004C193.552 64.5027 193.691 63.932 193.691 63.292C193.691 62.652 193.552 62.0813 193.275 61.58C193.008 61.0787 192.635 60.6947 192.155 60.428C191.686 60.1507 191.158 60.012 190.571 60.012C189.974 60.012 189.435 60.1507 188.955 60.428C188.486 60.6947 188.112 61.0787 187.835 61.58C187.568 62.0813 187.435 62.652 187.435 63.292C187.435 63.932 187.568 64.5027 187.835 65.004C188.112 65.5053 188.486 65.8947 188.955 66.172C189.435 66.4387 189.974 66.572 190.571 66.572ZM204.098 70.604C203.501 69.6227 203.042 68.4973 202.722 67.228C202.402 65.948 202.242 64.5773 202.242 63.116C202.242 61.6547 202.402 60.284 202.722 59.004C203.042 57.7133 203.501 56.588 204.098 55.628H205.186C204.557 56.7053 204.093 57.8627 203.794 59.1C203.506 60.3373 203.362 61.676 203.362 63.116C203.362 64.556 203.506 65.8947 203.794 67.132C204.093 68.3693 204.557 69.5267 205.186 70.604H204.098ZM212.18 67.596C210.729 67.596 209.598 67.18 208.788 66.348C207.977 65.516 207.572 64.3053 207.572 62.716V56.3H208.756V62.668C208.756 63.9693 209.049 64.94 209.636 65.58C210.222 66.22 211.07 66.54 212.18 66.54C213.3 66.54 214.153 66.22 214.74 65.58C215.326 64.94 215.62 63.9693 215.62 62.668V56.3H216.772V62.716C216.772 64.3053 216.366 65.516 215.556 66.348C214.756 67.18 213.63 67.596 212.18 67.596ZM223.428 67.596C222.596 67.596 221.796 67.4627 221.028 67.196C220.27 66.9293 219.684 66.5773 219.268 66.14L219.732 65.228C220.137 65.6333 220.676 65.964 221.348 66.22C222.02 66.4653 222.713 66.588 223.428 66.588C224.43 66.588 225.182 66.4067 225.684 66.044C226.185 65.6707 226.436 65.1907 226.436 64.604C226.436 64.156 226.297 63.7987 226.02 63.532C225.753 63.2653 225.422 63.0627 225.028 62.924C224.633 62.7747 224.084 62.6147 223.38 62.444C222.537 62.2307 221.865 62.028 221.364 61.836C220.862 61.6333 220.43 61.3293 220.068 60.924C219.716 60.5187 219.54 59.9693 219.54 59.276C219.54 58.7107 219.689 58.1987 219.988 57.74C220.286 57.2707 220.745 56.8973 221.364 56.62C221.982 56.3427 222.75 56.204 223.668 56.204C224.308 56.204 224.932 56.2947 225.54 56.476C226.158 56.6467 226.692 56.8867 227.14 57.196L226.74 58.14C226.27 57.8307 225.769 57.6013 225.236 57.452C224.702 57.292 224.18 57.212 223.668 57.212C222.686 57.212 221.945 57.404 221.444 57.788C220.953 58.1613 220.708 58.6467 220.708 59.244C220.708 59.692 220.841 60.0547 221.108 60.332C221.385 60.5987 221.726 60.8067 222.132 60.956C222.548 61.0947 223.102 61.2493 223.796 61.42C224.617 61.6227 225.278 61.8253 225.78 62.028C226.292 62.22 226.724 62.5187 227.076 62.924C227.428 63.3187 227.604 63.8573 227.604 64.54C227.604 65.1053 227.449 65.6227 227.14 66.092C226.841 66.5507 226.377 66.9187 225.748 67.196C225.118 67.4627 224.345 67.596 223.428 67.596ZM230.183 56.3H234.743C235.927 56.3 236.973 56.54 237.879 57.02C238.786 57.4893 239.49 58.1507 239.991 59.004C240.493 59.8467 240.743 60.812 240.743 61.9C240.743 62.988 240.493 63.9587 239.991 64.812C239.49 65.6547 238.786 66.316 237.879 66.796C236.973 67.2653 235.927 67.5 234.743 67.5H230.183V56.3ZM234.679 66.476C235.661 66.476 236.519 66.284 237.255 65.9C237.991 65.5053 238.562 64.9667 238.967 64.284C239.373 63.5907 239.575 62.796 239.575 61.9C239.575 61.004 239.373 60.2147 238.967 59.532C238.562 58.8387 237.991 58.3 237.255 57.916C236.519 57.5213 235.661 57.324 234.679 57.324H231.367V66.476H234.679ZM242.453 70.604C243.082 69.5267 243.546 68.3747 243.845 67.148C244.143 65.9107 244.293 64.5667 244.293 63.116C244.293 61.6653 244.143 60.3267 243.845 59.1C243.546 57.8627 243.082 56.7053 242.453 55.628H243.541C244.138 56.588 244.597 57.7133 244.917 59.004C245.247 60.284 245.413 61.6547 245.413 63.116C245.413 64.5773 245.253 65.948 244.933 67.228C244.613 68.508 244.149 69.6333 243.541 70.604H242.453Z" fill="white"/>
<path d="M369.636 63.756H364.956L363.948 66H363.024L366.864 57.6H367.74L371.58 66H370.644L369.636 63.756ZM369.312 63.036L367.296 58.524L365.28 63.036H369.312ZM372.79 57.096H373.642V66H372.79V57.096ZM376.012 57.096H376.864V66H376.012V57.096Z" fill="#F2F2F2"/>
<path d="M437.952 57.6V66H437.088V58.368H435.108V57.6H437.952ZM446.725 63.096V66H445.849V63.096L442.489 57.6H443.437L446.317 62.316L449.197 57.6H450.085L446.725 63.096ZM456.063 63.108H450.783C450.831 63.764 451.083 64.296 451.539 64.704C451.995 65.104 452.571 65.304 453.267 65.304C453.659 65.304 454.019 65.236 454.347 65.1C454.675 64.956 454.959 64.748 455.199 64.476L455.679 65.028C455.399 65.364 455.047 65.62 454.623 65.796C454.207 65.972 453.747 66.06 453.243 66.06C452.595 66.06 452.019 65.924 451.515 65.652C451.019 65.372 450.631 64.988 450.351 64.5C450.071 64.012 449.931 63.46 449.931 62.844C449.931 62.228 450.063 61.676 450.327 61.188C450.599 60.7 450.967 60.32 451.431 60.048C451.903 59.776 452.431 59.64 453.015 59.64C453.599 59.64 454.123 59.776 454.587 60.048C455.051 60.32 455.415 60.7 455.679 61.188C455.943 61.668 456.075 62.22 456.075 62.844L456.063 63.108ZM453.015 60.372C452.407 60.372 451.895 60.568 451.479 60.96C451.071 61.344 450.839 61.848 450.783 62.472H455.259C455.203 61.848 454.967 61.344 454.551 60.96C454.143 60.568 453.631 60.372 453.015 60.372ZM459.841 59.64C460.665 59.64 461.297 59.848 461.737 60.264C462.177 60.672 462.397 61.28 462.397 62.088V66H461.581V65.016C461.389 65.344 461.105 65.6 460.729 65.784C460.361 65.968 459.921 66.06 459.409 66.06C458.705 66.06 458.145 65.892 457.729 65.556C457.313 65.22 457.105 64.776 457.105 64.224C457.105 63.688 457.297 63.256 457.681 62.928C458.073 62.6 458.693 62.436 459.541 62.436H461.545V62.052C461.545 61.508 461.393 61.096 461.089 60.816C460.785 60.528 460.341 60.384 459.757 60.384C459.357 60.384 458.973 60.452 458.605 60.588C458.237 60.716 457.921 60.896 457.657 61.128L457.273 60.492C457.593 60.22 457.977 60.012 458.425 59.868C458.873 59.716 459.345 59.64 459.841 59.64ZM459.541 65.388C460.021 65.388 460.433 65.28 460.777 65.064C461.121 64.84 461.377 64.52 461.545 64.104V63.072H459.565C458.485 63.072 457.945 63.448 457.945 64.2C457.945 64.568 458.085 64.86 458.365 65.076C458.645 65.284 459.037 65.388 459.541 65.388ZM465.527 60.924C465.727 60.5 466.023 60.18 466.415 59.964C466.815 59.748 467.307 59.64 467.891 59.64V60.468L467.687 60.456C467.023 60.456 466.503 60.66 466.127 61.068C465.751 61.476 465.563 62.048 465.563 62.784V66H464.711V59.688H465.527V60.924Z" fill="white"/>
<path d="M528.24 57.528C529.352 57.528 530.204 57.896 530.796 58.632C531.388 59.36 531.684 60.392 531.684 61.728C531.684 62.664 531.524 63.456 531.204 64.104C530.884 64.752 530.436 65.244 529.86 65.58C529.284 65.908 528.612 66.072 527.844 66.072C527.012 66.072 526.348 65.92 525.852 65.616L526.2 64.92C526.6 65.184 527.144 65.316 527.832 65.316C528.76 65.316 529.488 65.024 530.016 64.44C530.544 63.848 530.808 62.992 530.808 61.872C530.808 61.664 530.796 61.436 530.772 61.188C530.564 61.644 530.232 62 529.776 62.256C529.32 62.504 528.796 62.628 528.204 62.628C527.652 62.628 527.16 62.524 526.728 62.316C526.304 62.108 525.972 61.816 525.732 61.44C525.492 61.056 525.372 60.612 525.372 60.108C525.372 59.596 525.496 59.144 525.744 58.752C525.992 58.36 526.332 58.06 526.764 57.852C527.204 57.636 527.696 57.528 528.24 57.528ZM528.336 61.896C528.76 61.896 529.132 61.816 529.452 61.656C529.78 61.496 530.036 61.276 530.22 60.996C530.404 60.716 530.496 60.404 530.496 60.06C530.496 59.74 530.408 59.444 530.232 59.172C530.064 58.9 529.812 58.68 529.476 58.512C529.14 58.344 528.74 58.26 528.276 58.26C527.668 58.26 527.172 58.428 526.788 58.764C526.412 59.092 526.224 59.532 526.224 60.084C526.224 60.636 526.412 61.076 526.788 61.404C527.172 61.732 527.688 61.896 528.336 61.896ZM536.285 66.072C535.637 66.072 535.057 65.9 534.545 65.556C534.041 65.212 533.645 64.72 533.357 64.08C533.077 63.432 532.937 62.672 532.937 61.8C532.937 60.928 533.077 60.172 533.357 59.532C533.645 58.884 534.041 58.388 534.545 58.044C535.057 57.7 535.637 57.528 536.285 57.528C536.933 57.528 537.509 57.7 538.013 58.044C538.525 58.388 538.925 58.884 539.213 59.532C539.501 60.172 539.645 60.928 539.645 61.8C539.645 62.672 539.501 63.432 539.213 64.08C538.925 64.72 538.525 65.212 538.013 65.556C537.509 65.9 536.933 66.072 536.285 66.072ZM536.285 65.28C536.773 65.28 537.201 65.144 537.569 64.872C537.945 64.6 538.237 64.204 538.445 63.684C538.653 63.164 538.757 62.536 538.757 61.8C538.757 61.064 538.653 60.436 538.445 59.916C538.237 59.396 537.945 59 537.569 58.728C537.201 58.456 536.773 58.32 536.285 58.32C535.797 58.32 535.365 58.456 534.989 58.728C534.621 59 534.333 59.396 534.125 59.916C533.917 60.436 533.812 61.064 533.812 61.8C533.812 62.536 533.917 63.164 534.125 63.684C534.333 64.204 534.621 64.6 534.989 64.872C535.365 65.144 535.797 65.28 536.285 65.28ZM544.766 57.6H548.186C549.074 57.6 549.858 57.78 550.538 58.14C551.218 58.492 551.746 58.988 552.122 59.628C552.498 60.26 552.686 60.984 552.686 61.8C552.686 62.616 552.498 63.344 552.122 63.984C551.746 64.616 551.218 65.112 550.538 65.472C549.858 65.824 549.074 66 548.186 66H544.766V57.6ZM548.138 65.232C548.874 65.232 549.518 65.088 550.07 64.8C550.622 64.504 551.05 64.1 551.354 63.588C551.658 63.068 551.81 62.472 551.81 61.8C551.81 61.128 551.658 60.536 551.354 60.024C551.05 59.504 550.622 59.1 550.07 58.812C549.518 58.516 548.874 58.368 548.138 58.368H545.654V65.232H548.138ZM556.709 59.64C557.533 59.64 558.165 59.848 558.605 60.264C559.045 60.672 559.265 61.28 559.265 62.088V66H558.449V65.016C558.257 65.344 557.973 65.6 557.597 65.784C557.229 65.968 556.789 66.06 556.277 66.06C555.573 66.06 555.013 65.892 554.597 65.556C554.181 65.22 553.973 64.776 553.973 64.224C553.973 63.688 554.165 63.256 554.549 62.928C554.941 62.6 555.561 62.436 556.409 62.436H558.413V62.052C558.413 61.508 558.261 61.096 557.957 60.816C557.653 60.528 557.209 60.384 556.625 60.384C556.225 60.384 555.841 60.452 555.473 60.588C555.105 60.716 554.789 60.896 554.525 61.128L554.141 60.492C554.461 60.22 554.845 60.012 555.293 59.868C555.741 59.716 556.213 59.64 556.709 59.64ZM556.409 65.388C556.889 65.388 557.301 65.28 557.645 65.064C557.989 64.84 558.245 64.52 558.413 64.104V63.072H556.433C555.353 63.072 554.812 63.448 554.812 64.2C554.812 64.568 554.953 64.86 555.233 65.076C555.513 65.284 555.905 65.388 556.409 65.388ZM566.765 59.688L563.609 66.756C563.353 67.348 563.057 67.768 562.721 68.016C562.385 68.264 561.981 68.388 561.509 68.388C561.205 68.388 560.921 68.34 560.657 68.244C560.393 68.148 560.165 68.004 559.973 67.812L560.369 67.176C560.689 67.496 561.073 67.656 561.521 67.656C561.809 67.656 562.053 67.576 562.253 67.416C562.461 67.256 562.653 66.984 562.829 66.6L563.105 65.988L560.285 59.688H561.173L563.549 65.052L565.925 59.688H566.765ZM569.587 66.06C569.075 66.06 568.583 65.988 568.111 65.844C567.647 65.692 567.283 65.504 567.019 65.28L567.403 64.608C567.667 64.816 567.999 64.988 568.399 65.124C568.799 65.252 569.215 65.316 569.647 65.316C570.223 65.316 570.647 65.228 570.919 65.052C571.199 64.868 571.339 64.612 571.339 64.284C571.339 64.052 571.263 63.872 571.111 63.744C570.959 63.608 570.767 63.508 570.535 63.444C570.303 63.372 569.995 63.304 569.611 63.24C569.099 63.144 568.687 63.048 568.375 62.952C568.063 62.848 567.795 62.676 567.571 62.436C567.355 62.196 567.247 61.864 567.247 61.44C567.247 60.912 567.467 60.48 567.907 60.144C568.347 59.808 568.959 59.64 569.743 59.64C570.151 59.64 570.559 59.696 570.967 59.808C571.375 59.912 571.711 60.052 571.975 60.228L571.603 60.912C571.083 60.552 570.463 60.372 569.743 60.372C569.199 60.372 568.787 60.468 568.507 60.66C568.235 60.852 568.099 61.104 568.099 61.416C568.099 61.656 568.175 61.848 568.327 61.992C568.487 62.136 568.683 62.244 568.915 62.316C569.147 62.38 569.467 62.448 569.875 62.52C570.379 62.616 570.783 62.712 571.087 62.808C571.391 62.904 571.651 63.068 571.867 63.3C572.083 63.532 572.191 63.852 572.191 64.26C572.191 64.812 571.959 65.252 571.495 65.58C571.039 65.9 570.403 66.06 569.587 66.06Z" fill="white"/>
<path d="M632.48 61.2C633.36 61.248 634.028 61.488 634.484 61.92C634.948 62.344 635.18 62.9 635.18 63.588C635.18 64.068 635.064 64.496 634.832 64.872C634.6 65.24 634.256 65.532 633.8 65.748C633.344 65.964 632.788 66.072 632.132 66.072C631.524 66.072 630.948 65.976 630.404 65.784C629.868 65.584 629.436 65.32 629.108 64.992L629.528 64.308C629.808 64.596 630.18 64.832 630.644 65.016C631.108 65.192 631.604 65.28 632.132 65.28C632.82 65.28 633.352 65.132 633.728 64.836C634.104 64.532 634.292 64.116 634.292 63.588C634.292 63.068 634.104 62.66 633.728 62.364C633.352 62.068 632.784 61.92 632.024 61.92H631.424V61.284L633.752 58.368H629.456V57.6H634.856V58.212L632.48 61.2ZM639.745 66.072C639.097 66.072 638.517 65.9 638.005 65.556C637.501 65.212 637.105 64.72 636.817 64.08C636.537 63.432 636.397 62.672 636.397 61.8C636.397 60.928 636.537 60.172 636.817 59.532C637.105 58.884 637.501 58.388 638.005 58.044C638.517 57.7 639.097 57.528 639.745 57.528C640.393 57.528 640.969 57.7 641.473 58.044C641.985 58.388 642.385 58.884 642.673 59.532C642.961 60.172 643.105 60.928 643.105 61.8C643.105 62.672 642.961 63.432 642.673 64.08C642.385 64.72 641.985 65.212 641.473 65.556C640.969 65.9 640.393 66.072 639.745 66.072ZM639.745 65.28C640.233 65.28 640.661 65.144 641.029 64.872C641.405 64.6 641.697 64.204 641.905 63.684C642.113 63.164 642.217 62.536 642.217 61.8C642.217 61.064 642.113 60.436 641.905 59.916C641.697 59.396 641.405 59 641.029 58.728C640.661 58.456 640.233 58.32 639.745 58.32C639.257 58.32 638.825 58.456 638.449 58.728C638.081 59 637.793 59.396 637.585 59.916C637.377 60.436 637.273 61.064 637.273 61.8C637.273 62.536 637.377 63.164 637.585 63.684C637.793 64.204 638.081 64.6 638.449 64.872C638.825 65.144 639.257 65.28 639.745 65.28ZM648.227 57.6H651.647C652.535 57.6 653.319 57.78 653.999 58.14C654.679 58.492 655.207 58.988 655.583 59.628C655.959 60.26 656.147 60.984 656.147 61.8C656.147 62.616 655.959 63.344 655.583 63.984C655.207 64.616 654.679 65.112 653.999 65.472C653.319 65.824 652.535 66 651.647 66H648.227V57.6ZM651.599 65.232C652.335 65.232 652.979 65.088 653.531 64.8C654.083 64.504 654.511 64.1 654.815 63.588C655.119 63.068 655.271 62.472 655.271 61.8C655.271 61.128 655.119 60.536 654.815 60.024C654.511 59.504 654.083 59.1 653.531 58.812C652.979 58.516 652.335 58.368 651.599 58.368H649.115V65.232H651.599ZM660.169 59.64C660.993 59.64 661.625 59.848 662.065 60.264C662.505 60.672 662.725 61.28 662.725 62.088V66H661.909V65.016C661.717 65.344 661.433 65.6 661.057 65.784C660.689 65.968 660.249 66.06 659.737 66.06C659.033 66.06 658.473 65.892 658.057 65.556C657.641 65.22 657.433 64.776 657.433 64.224C657.433 63.688 657.625 63.256 658.009 62.928C658.401 62.6 659.021 62.436 659.869 62.436H661.873V62.052C661.873 61.508 661.721 61.096 661.417 60.816C661.113 60.528 660.669 60.384 660.085 60.384C659.685 60.384 659.301 60.452 658.933 60.588C658.565 60.716 658.249 60.896 657.985 61.128L657.601 60.492C657.921 60.22 658.305 60.012 658.753 59.868C659.201 59.716 659.673 59.64 660.169 59.64ZM659.869 65.388C660.349 65.388 660.761 65.28 661.105 65.064C661.449 64.84 661.705 64.52 661.873 64.104V63.072H659.893C658.813 63.072 658.273 63.448 658.273 64.2C658.273 64.568 658.413 64.86 658.693 65.076C658.973 65.284 659.365 65.388 659.869 65.388ZM670.226 59.688L667.07 66.756C666.814 67.348 666.518 67.768 666.182 68.016C665.846 68.264 665.442 68.388 664.97 68.388C664.666 68.388 664.382 68.34 664.118 68.244C663.854 68.148 663.626 68.004 663.434 67.812L663.83 67.176C664.15 67.496 664.534 67.656 664.982 67.656C665.27 67.656 665.514 67.576 665.714 67.416C665.922 67.256 666.114 66.984 666.29 66.6L666.566 65.988L663.746 59.688H664.634L667.01 65.052L669.386 59.688H670.226ZM673.048 66.06C672.536 66.06 672.044 65.988 671.572 65.844C671.108 65.692 670.744 65.504 670.48 65.28L670.864 64.608C671.128 64.816 671.46 64.988 671.86 65.124C672.26 65.252 672.676 65.316 673.108 65.316C673.684 65.316 674.108 65.228 674.38 65.052C674.66 64.868 674.8 64.612 674.8 64.284C674.8 64.052 674.724 63.872 674.572 63.744C674.42 63.608 674.228 63.508 673.996 63.444C673.764 63.372 673.456 63.304 673.072 63.24C672.56 63.144 672.148 63.048 671.836 62.952C671.524 62.848 671.256 62.676 671.032 62.436C670.816 62.196 670.708 61.864 670.708 61.44C670.708 60.912 670.928 60.48 671.368 60.144C671.808 59.808 672.42 59.64 673.204 59.64C673.612 59.64 674.02 59.696 674.428 59.808C674.836 59.912 675.172 60.052 675.436 60.228L675.064 60.912C674.544 60.552 673.924 60.372 673.204 60.372C672.66 60.372 672.248 60.468 671.968 60.66C671.696 60.852 671.56 61.104 671.56 61.416C671.56 61.656 671.636 61.848 671.788 61.992C671.948 62.136 672.144 62.244 672.376 62.316C672.608 62.38 672.928 62.448 673.336 62.52C673.84 62.616 674.244 62.712 674.548 62.808C674.852 62.904 675.112 63.068 675.328 63.3C675.544 63.532 675.652 63.852 675.652 64.26C675.652 64.812 675.42 65.252 674.956 65.58C674.5 65.9 673.864 66.06 673.048 66.06Z" fill="white"/>
<rect x="609.5" y="44.5" width="87" height="35" stroke="#E8E8E8"/>
<circle cx="51" cy="105" r="4" fill="#8247E5"/>
<path d="M68 101.368H65.048V100.6H71.84V101.368H68.888V109H68V101.368ZM80.184 100.6L76.464 109H75.588L71.868 100.6H72.828L76.044 107.896L79.284 100.6H80.184ZM81.4032 100.6H82.2912V108.232H86.9952V109H81.4032V100.6Z" fill="white"/>
<circle cx="116" cy="105" r="4" fill="#E6C153"/>
<path d="M133 101.368H130.048V100.6H136.84V101.368H133.888V109H133V101.368ZM140.002 109.06C139.394 109.06 138.846 108.924 138.358 108.652C137.87 108.372 137.486 107.988 137.206 107.5C136.926 107.012 136.786 106.46 136.786 105.844C136.786 105.228 136.926 104.676 137.206 104.188C137.486 103.7 137.87 103.32 138.358 103.048C138.846 102.776 139.394 102.64 140.002 102.64C140.61 102.64 141.158 102.776 141.646 103.048C142.134 103.32 142.514 103.7 142.786 104.188C143.066 104.676 143.206 105.228 143.206 105.844C143.206 106.46 143.066 107.012 142.786 107.5C142.514 107.988 142.134 108.372 141.646 108.652C141.158 108.924 140.61 109.06 140.002 109.06ZM140.002 108.304C140.45 108.304 140.85 108.204 141.202 108.004C141.562 107.796 141.842 107.504 142.042 107.128C142.242 106.752 142.342 106.324 142.342 105.844C142.342 105.364 142.242 104.936 142.042 104.56C141.842 104.184 141.562 103.896 141.202 103.696C140.85 103.488 140.45 103.384 140.002 103.384C139.554 103.384 139.15 103.488 138.79 103.696C138.438 103.896 138.158 104.184 137.95 104.56C137.75 104.936 137.65 105.364 137.65 105.844C137.65 106.324 137.75 106.752 137.95 107.128C138.158 107.504 138.438 107.796 138.79 108.004C139.15 108.204 139.554 108.304 140.002 108.304ZM148.27 108.616C148.11 108.76 147.91 108.872 147.67 108.952C147.438 109.024 147.194 109.06 146.938 109.06C146.346 109.06 145.89 108.9 145.57 108.58C145.25 108.26 145.09 107.808 145.09 107.224V103.408H143.962V102.688H145.09V101.308H145.942V102.688H147.862V103.408H145.942V107.176C145.942 107.552 146.034 107.84 146.218 108.04C146.41 108.232 146.682 108.328 147.034 108.328C147.21 108.328 147.378 108.3 147.538 108.244C147.706 108.188 147.85 108.108 147.97 108.004L148.27 108.616ZM152.029 102.64C152.853 102.64 153.485 102.848 153.925 103.264C154.365 103.672 154.585 104.28 154.585 105.088V109H153.769V108.016C153.577 108.344 153.293 108.6 152.917 108.784C152.549 108.968 152.109 109.06 151.597 109.06C150.893 109.06 150.333 108.892 149.917 108.556C149.501 108.22 149.293 107.776 149.293 107.224C149.293 106.688 149.485 106.256 149.869 105.928C150.261 105.6 150.881 105.436 151.729 105.436H153.733V105.052C153.733 104.508 153.581 104.096 153.277 103.816C152.973 103.528 152.529 103.384 151.945 103.384C151.545 103.384 151.161 103.452 150.793 103.588C150.425 103.716 150.109 103.896 149.845 104.128L149.461 103.492C149.781 103.22 150.165 103.012 150.613 102.868C151.061 102.716 151.533 102.64 152.029 102.64ZM151.729 108.388C152.209 108.388 152.621 108.28 152.965 108.064C153.309 107.84 153.565 107.52 153.733 107.104V106.072H151.753C150.673 106.072 150.133 106.448 150.133 107.2C150.133 107.568 150.273 107.86 150.553 108.076C150.833 108.284 151.225 108.388 151.729 108.388ZM156.899 100.096H157.751V109H156.899V100.096ZM166.586 108.616C166.426 108.76 166.226 108.872 165.986 108.952C165.754 109.024 165.51 109.06 165.254 109.06C164.662 109.06 164.206 108.9 163.886 108.58C163.566 108.26 163.406 107.808 163.406 107.224V103.408H162.278V102.688H163.406V101.308H164.258V102.688H166.178V103.408H164.258V107.176C164.258 107.552 164.35 107.84 164.534 108.04C164.726 108.232 164.998 108.328 165.35 108.328C165.526 108.328 165.694 108.3 165.854 108.244C166.022 108.188 166.166 108.108 166.286 108.004L166.586 108.616ZM168.953 103.924C169.153 103.5 169.449 103.18 169.841 102.964C170.241 102.748 170.733 102.64 171.317 102.64V103.468L171.113 103.456C170.449 103.456 169.929 103.66 169.553 104.068C169.177 104.476 168.989 105.048 168.989 105.784V109H168.137V102.688H168.953V103.924ZM175.056 102.64C175.88 102.64 176.512 102.848 176.952 103.264C177.392 103.672 177.612 104.28 177.612 105.088V109H176.796V108.016C176.604 108.344 176.32 108.6 175.944 108.784C175.576 108.968 175.136 109.06 174.624 109.06C173.92 109.06 173.36 108.892 172.944 108.556C172.528 108.22 172.32 107.776 172.32 107.224C172.32 106.688 172.512 106.256 172.896 105.928C173.288 105.6 173.908 105.436 174.756 105.436H176.76V105.052C176.76 104.508 176.608 104.096 176.304 103.816C176 103.528 175.556 103.384 174.972 103.384C174.572 103.384 174.188 103.452 173.82 103.588C173.452 103.716 173.136 103.896 172.872 104.128L172.488 103.492C172.808 103.22 173.192 103.012 173.64 102.868C174.088 102.716 174.56 102.64 175.056 102.64ZM174.756 108.388C175.236 108.388 175.648 108.28 175.992 108.064C176.336 107.84 176.592 107.52 176.76 107.104V106.072H174.78C173.7 106.072 173.16 106.448 173.16 107.2C173.16 107.568 173.3 107.86 173.58 108.076C173.86 108.284 174.252 108.388 174.756 108.388ZM183.142 102.64C183.934 102.64 184.562 102.872 185.026 103.336C185.498 103.792 185.734 104.46 185.734 105.34V109H184.882V105.424C184.882 104.768 184.718 104.268 184.39 103.924C184.062 103.58 183.594 103.408 182.986 103.408C182.306 103.408 181.766 103.612 181.366 104.02C180.974 104.42 180.778 104.976 180.778 105.688V109H179.926V102.688H180.742V103.852C180.974 103.468 181.294 103.172 181.702 102.964C182.118 102.748 182.598 102.64 183.142 102.64ZM189.739 109.06C189.227 109.06 188.735 108.988 188.263 108.844C187.799 108.692 187.435 108.504 187.171 108.28L187.555 107.608C187.819 107.816 188.151 107.988 188.551 108.124C188.951 108.252 189.367 108.316 189.799 108.316C190.375 108.316 190.799 108.228 191.071 108.052C191.351 107.868 191.491 107.612 191.491 107.284C191.491 107.052 191.415 106.872 191.263 106.744C191.111 106.608 190.919 106.508 190.687 106.444C190.455 106.372 190.147 106.304 189.763 106.24C189.251 106.144 188.839 106.048 188.527 105.952C188.215 105.848 187.947 105.676 187.723 105.436C187.507 105.196 187.399 104.864 187.399 104.44C187.399 103.912 187.619 103.48 188.059 103.144C188.499 102.808 189.111 102.64 189.895 102.64C190.303 102.64 190.711 102.696 191.119 102.808C191.527 102.912 191.863 103.052 192.127 103.228L191.755 103.912C191.235 103.552 190.615 103.372 189.895 103.372C189.351 103.372 188.939 103.468 188.659 103.66C188.387 103.852 188.251 104.104 188.251 104.416C188.251 104.656 188.327 104.848 188.479 104.992C188.639 105.136 188.835 105.244 189.067 105.316C189.299 105.38 189.619 105.448 190.027 105.52C190.531 105.616 190.935 105.712 191.239 105.808C191.543 105.904 191.803 106.068 192.019 106.3C192.235 106.532 192.343 106.852 192.343 107.26C192.343 107.812 192.111 108.252 191.647 108.58C191.191 108.9 190.555 109.06 189.739 109.06ZM196.126 102.64C196.95 102.64 197.582 102.848 198.022 103.264C198.462 103.672 198.682 104.28 198.682 105.088V109H197.866V108.016C197.674 108.344 197.39 108.6 197.014 108.784C196.646 108.968 196.206 109.06 195.694 109.06C194.99 109.06 194.43 108.892 194.014 108.556C193.598 108.22 193.39 107.776 193.39 107.224C193.39 106.688 193.582 106.256 193.966 105.928C194.358 105.6 194.978 105.436 195.826 105.436H197.83V105.052C197.83 104.508 197.678 104.096 197.374 103.816C197.07 103.528 196.626 103.384 196.042 103.384C195.642 103.384 195.258 103.452 194.89 103.588C194.522 103.716 194.206 103.896 193.942 104.128L193.558 103.492C193.878 103.22 194.262 103.012 194.71 102.868C195.158 102.716 195.63 102.64 196.126 102.64ZM195.826 108.388C196.306 108.388 196.718 108.28 197.062 108.064C197.406 107.84 197.662 107.52 197.83 107.104V106.072H195.85C194.77 106.072 194.23 106.448 194.23 107.2C194.23 107.568 194.37 107.86 194.65 108.076C194.93 108.284 195.322 108.388 195.826 108.388ZM203.636 109.06C203.012 109.06 202.452 108.924 201.956 108.652C201.468 108.38 201.084 108 200.804 107.512C200.524 107.016 200.384 106.46 200.384 105.844C200.384 105.228 200.524 104.676 200.804 104.188C201.084 103.7 201.468 103.32 201.956 103.048C202.452 102.776 203.012 102.64 203.636 102.64C204.18 102.64 204.664 102.748 205.088 102.964C205.52 103.172 205.86 103.48 206.108 103.888L205.472 104.32C205.264 104.008 205 103.776 204.68 103.624C204.36 103.464 204.012 103.384 203.636 103.384C203.18 103.384 202.768 103.488 202.4 103.696C202.04 103.896 201.756 104.184 201.548 104.56C201.348 104.936 201.248 105.364 201.248 105.844C201.248 106.332 201.348 106.764 201.548 107.14C201.756 107.508 202.04 107.796 202.4 108.004C202.768 108.204 203.18 108.304 203.636 108.304C204.012 108.304 204.36 108.228 204.68 108.076C205 107.924 205.264 107.692 205.472 107.38L206.108 107.812C205.86 108.22 205.52 108.532 205.088 108.748C204.656 108.956 204.172 109.06 203.636 109.06ZM210.292 109.06C209.668 109.06 209.108 108.924 208.612 108.652C208.124 108.38 207.74 108 207.46 107.512C207.18 107.016 207.04 106.46 207.04 105.844C207.04 105.228 207.18 104.676 207.46 104.188C207.74 103.7 208.124 103.32 208.612 103.048C209.108 102.776 209.668 102.64 210.292 102.64C210.836 102.64 211.32 102.748 211.744 102.964C212.176 103.172 212.516 103.48 212.764 103.888L212.128 104.32C211.92 104.008 211.656 103.776 211.336 103.624C211.016 103.464 210.668 103.384 210.292 103.384C209.836 103.384 209.424 103.488 209.056 103.696C208.696 103.896 208.412 104.184 208.204 104.56C208.004 104.936 207.904 105.364 207.904 105.844C207.904 106.332 208.004 106.764 208.204 107.14C208.412 107.508 208.696 107.796 209.056 108.004C209.424 108.204 209.836 108.304 210.292 108.304C210.668 108.304 211.016 108.228 211.336 108.076C211.656 107.924 211.92 107.692 212.128 107.38L212.764 107.812C212.516 108.22 212.176 108.532 211.744 108.748C211.312 108.956 210.828 109.06 210.292 109.06ZM217.832 108.616C217.672 108.76 217.472 108.872 217.232 108.952C217 109.024 216.756 109.06 216.5 109.06C215.908 109.06 215.452 108.9 215.132 108.58C214.812 108.26 214.652 107.808 214.652 107.224V103.408H213.524V102.688H214.652V101.308H215.504V102.688H217.424V103.408H215.504V107.176C215.504 107.552 215.596 107.84 215.78 108.04C215.972 108.232 216.244 108.328 216.596 108.328C216.772 108.328 216.94 108.3 217.1 108.244C217.268 108.188 217.412 108.108 217.532 108.004L217.832 108.616ZM219.383 102.688H220.235V109H219.383V102.688ZM219.815 101.308C219.639 101.308 219.491 101.248 219.371 101.128C219.251 101.008 219.191 100.864 219.191 100.696C219.191 100.536 219.251 100.396 219.371 100.276C219.491 100.156 219.639 100.096 219.815 100.096C219.991 100.096 220.139 100.156 220.259 100.276C220.379 100.388 220.439 100.524 220.439 100.684C220.439 100.86 220.379 101.008 220.259 101.128C220.139 101.248 219.991 101.308 219.815 101.308ZM225.186 109.06C224.578 109.06 224.03 108.924 223.542 108.652C223.054 108.372 222.67 107.988 222.39 107.5C222.11 107.012 221.97 106.46 221.97 105.844C221.97 105.228 222.11 104.676 222.39 104.188C222.67 103.7 223.054 103.32 223.542 103.048C224.03 102.776 224.578 102.64 225.186 102.64C225.794 102.64 226.342 102.776 226.83 103.048C227.318 103.32 227.698 103.7 227.97 104.188C228.25 104.676 228.39 105.228 228.39 105.844C228.39 106.46 228.25 107.012 227.97 107.5C227.698 107.988 227.318 108.372 226.83 108.652C226.342 108.924 225.794 109.06 225.186 109.06ZM225.186 108.304C225.634 108.304 226.034 108.204 226.386 108.004C226.746 107.796 227.026 107.504 227.226 107.128C227.426 106.752 227.526 106.324 227.526 105.844C227.526 105.364 227.426 104.936 227.226 104.56C227.026 104.184 226.746 103.896 226.386 103.696C226.034 103.488 225.634 103.384 225.186 103.384C224.738 103.384 224.334 103.488 223.974 103.696C223.622 103.896 223.342 104.184 223.134 104.56C222.934 104.936 222.834 105.364 222.834 105.844C222.834 106.324 222.934 106.752 223.134 107.128C223.342 107.504 223.622 107.796 223.974 108.004C224.334 108.204 224.738 108.304 225.186 108.304ZM233.345 102.64C234.137 102.64 234.765 102.872 235.229 103.336C235.701 103.792 235.937 104.46 235.937 105.34V109H235.085V105.424C235.085 104.768 234.921 104.268 234.593 103.924C234.265 103.58 233.797 103.408 233.189 103.408C232.509 103.408 231.969 103.612 231.569 104.02C231.177 104.42 230.981 104.976 230.981 105.688V109H230.129V102.688H230.945V103.852C231.177 103.468 231.497 103.172 231.905 102.964C232.321 102.748 232.801 102.64 233.345 102.64ZM239.943 109.06C239.431 109.06 238.939 108.988 238.467 108.844C238.003 108.692 237.639 108.504 237.375 108.28L237.759 107.608C238.023 107.816 238.355 107.988 238.755 108.124C239.155 108.252 239.571 108.316 240.003 108.316C240.579 108.316 241.003 108.228 241.275 108.052C241.555 107.868 241.695 107.612 241.695 107.284C241.695 107.052 241.619 106.872 241.467 106.744C241.315 106.608 241.123 106.508 240.891 106.444C240.659 106.372 240.351 106.304 239.967 106.24C239.455 106.144 239.043 106.048 238.731 105.952C238.419 105.848 238.151 105.676 237.927 105.436C237.711 105.196 237.603 104.864 237.603 104.44C237.603 103.912 237.823 103.48 238.263 103.144C238.703 102.808 239.315 102.64 240.099 102.64C240.507 102.64 240.915 102.696 241.323 102.808C241.731 102.912 242.067 103.052 242.331 103.228L241.959 103.912C241.439 103.552 240.819 103.372 240.099 103.372C239.555 103.372 239.143 103.468 238.863 103.66C238.591 103.852 238.455 104.104 238.455 104.416C238.455 104.656 238.531 104.848 238.683 104.992C238.843 105.136 239.039 105.244 239.271 105.316C239.503 105.38 239.823 105.448 240.23 105.52C240.735 105.616 241.139 105.712 241.443 105.808C241.747 105.904 242.007 106.068 242.223 106.3C242.439 106.532 242.547 106.852 242.547 107.26C242.547 107.812 242.315 108.252 241.851 108.58C241.395 108.9 240.759 109.06 239.943 109.06Z" fill="white"/>
<path d="M47.74 151.86L48.26 151.07C48.5467 151.263 48.8367 151.42 49.13 151.54C49.4233 151.66 49.7433 151.72 50.09 151.72C50.41 151.72 50.65 151.66 50.81 151.54C50.9767 151.42 51.06 151.26 51.06 151.06C51.06 150.887 50.9833 150.743 50.83 150.63C50.6833 150.517 50.4967 150.413 50.27 150.32C50.0433 150.22 49.8 150.123 49.54 150.03C49.28 149.93 49.0367 149.81 48.81 149.67C48.5833 149.53 48.3933 149.363 48.24 149.17C48.0933 148.97 48.02 148.72 48.02 148.42C48.02 147.987 48.1667 147.633 48.46 147.36C48.7533 147.087 49.15 146.917 49.65 146.85V145.54H50.45V146.84C50.8033 146.88 51.1033 146.97 51.35 147.11C51.6033 147.25 51.8333 147.423 52.04 147.63L51.46 148.3C51.2267 148.127 51.0033 147.993 50.79 147.9C50.5833 147.807 50.3267 147.76 50.02 147.76C49.74 147.76 49.52 147.817 49.36 147.93C49.2067 148.043 49.13 148.2 49.13 148.4C49.13 148.553 49.2033 148.68 49.35 148.78C49.5033 148.88 49.6933 148.977 49.92 149.07C50.1467 149.157 50.39 149.25 50.65 149.35C50.9167 149.443 51.1633 149.56 51.39 149.7C51.6167 149.84 51.8033 150.013 51.95 150.22C52.1033 150.42 52.18 150.673 52.18 150.98C52.18 151.407 52.0267 151.77 51.72 152.07C51.42 152.363 50.9967 152.55 50.45 152.63V154.1H49.65V152.65C49.3033 152.617 48.96 152.53 48.62 152.39C48.28 152.243 47.9867 152.067 47.74 151.86ZM53.8761 153V152.06H55.6461V147.88H54.2361V147.16C54.4361 147.133 54.6161 147.103 54.7761 147.07C54.9361 147.03 55.0828 146.99 55.2161 146.95C55.3561 146.91 55.4861 146.863 55.6061 146.81C55.7261 146.757 55.8428 146.7 55.9561 146.64H56.7961V152.06H58.3561V153H53.8761ZM61.9922 153.12C61.2655 153.12 60.6889 152.833 60.2622 152.26C59.8422 151.687 59.6322 150.863 59.6322 149.79C59.6322 148.71 59.8422 147.897 60.2622 147.35C60.6889 146.797 61.2655 146.52 61.9922 146.52C62.7189 146.52 63.2922 146.797 63.7122 147.35C64.1389 147.897 64.3522 148.71 64.3522 149.79C64.3522 150.863 64.1389 151.687 63.7122 152.26C63.2922 152.833 62.7189 153.12 61.9922 153.12ZM61.9922 152.22C62.1789 152.22 62.3522 152.177 62.5122 152.09C62.6789 151.997 62.8189 151.853 62.9322 151.66C63.0522 151.467 63.1455 151.217 63.2122 150.91C63.2789 150.597 63.3122 150.223 63.3122 149.79C63.3122 149.357 63.2789 148.99 63.2122 148.69C63.1455 148.383 63.0522 148.137 62.9322 147.95C62.8189 147.763 62.6789 147.63 62.5122 147.55C62.3522 147.463 62.1789 147.42 61.9922 147.42C61.7989 147.42 61.6222 147.463 61.4622 147.55C61.3022 147.63 61.1622 147.763 61.0422 147.95C60.9289 148.137 60.8389 148.383 60.7722 148.69C60.7055 148.99 60.6722 149.357 60.6722 149.79C60.6722 150.223 60.7055 150.597 60.7722 150.91C60.8389 151.217 60.9289 151.467 61.0422 151.66C61.1622 151.853 61.3022 151.997 61.4622 152.09C61.6222 152.177 61.7989 152.22 61.9922 152.22ZM61.9922 150.46C61.7989 150.46 61.6355 150.397 61.5022 150.27C61.3689 150.143 61.3022 149.97 61.3022 149.75C61.3022 149.53 61.3689 149.357 61.5022 149.23C61.6355 149.103 61.7989 149.04 61.9922 149.04C62.1855 149.04 62.3489 149.103 62.4822 149.23C62.6155 149.357 62.6822 149.53 62.6822 149.75C62.6822 149.97 62.6155 150.143 62.4822 150.27C62.3489 150.397 62.1855 150.46 61.9922 150.46ZM67.9883 153.12C67.2616 153.12 66.6849 152.833 66.2583 152.26C65.8383 151.687 65.6283 150.863 65.6283 149.79C65.6283 148.71 65.8383 147.897 66.2583 147.35C66.6849 146.797 67.2616 146.52 67.9883 146.52C68.7149 146.52 69.2883 146.797 69.7083 147.35C70.1349 147.897 70.3483 148.71 70.3483 149.79C70.3483 150.863 70.1349 151.687 69.7083 152.26C69.2883 152.833 68.7149 153.12 67.9883 153.12ZM67.9883 152.22C68.1749 152.22 68.3483 152.177 68.5083 152.09C68.6749 151.997 68.8149 151.853 68.9283 151.66C69.0483 151.467 69.1416 151.217 69.2083 150.91C69.2749 150.597 69.3083 150.223 69.3083 149.79C69.3083 149.357 69.2749 148.99 69.2083 148.69C69.1416 148.383 69.0483 148.137 68.9283 147.95C68.8149 147.763 68.6749 147.63 68.5083 147.55C68.3483 147.463 68.1749 147.42 67.9883 147.42C67.7949 147.42 67.6183 147.463 67.4583 147.55C67.2983 147.63 67.1583 147.763 67.0383 147.95C66.9249 148.137 66.8349 148.383 66.7683 148.69C66.7016 148.99 66.6683 149.357 66.6683 149.79C66.6683 150.223 66.7016 150.597 66.7683 150.91C66.8349 151.217 66.9249 151.467 67.0383 151.66C67.1583 151.853 67.2983 151.997 67.4583 152.09C67.6183 152.177 67.7949 152.22 67.9883 152.22ZM67.9883 150.46C67.7949 150.46 67.6316 150.397 67.4983 150.27C67.3649 150.143 67.2983 149.97 67.2983 149.75C67.2983 149.53 67.3649 149.357 67.4983 149.23C67.6316 149.103 67.7949 149.04 67.9883 149.04C68.1816 149.04 68.3449 149.103 68.4783 149.23C68.6116 149.357 68.6783 149.53 68.6783 149.75C68.6783 149.97 68.6116 150.143 68.4783 150.27C68.3449 150.397 68.1816 150.46 67.9883 150.46ZM71.8444 153V146.46H73.8744C74.2144 146.46 74.5244 146.49 74.8044 146.55C75.091 146.603 75.3344 146.693 75.5344 146.82C75.741 146.94 75.901 147.103 76.0144 147.31C76.1344 147.517 76.1944 147.77 76.1944 148.07C76.1944 148.383 76.101 148.673 75.9144 148.94C75.7344 149.207 75.451 149.39 75.0644 149.49V149.53C75.5377 149.61 75.901 149.777 76.1544 150.03C76.4077 150.283 76.5344 150.633 76.5344 151.08C76.5344 151.407 76.471 151.69 76.3444 151.93C76.2244 152.17 76.051 152.37 75.8244 152.53C75.6044 152.69 75.341 152.81 75.0344 152.89C74.7344 152.963 74.4044 153 74.0444 153H71.8444ZM73.0044 149.15H73.7744C74.2344 149.15 74.561 149.07 74.7544 148.91C74.9544 148.75 75.0544 148.517 75.0544 148.21C75.0544 147.91 74.951 147.7 74.7444 147.58C74.5377 147.453 74.221 147.39 73.7944 147.39H73.0044V149.15ZM73.0044 152.07H73.9244C74.4044 152.07 74.7677 151.987 75.0144 151.82C75.2677 151.647 75.3944 151.373 75.3944 151C75.3944 150.653 75.271 150.407 75.0244 150.26C74.7844 150.107 74.4177 150.03 73.9244 150.03H73.0044V152.07Z" fill="#F2F2F2"/>
<path d="M47.74 213.36L48.26 212.57C48.5467 212.763 48.8367 212.92 49.13 213.04C49.4233 213.16 49.7433 213.22 50.09 213.22C50.41 213.22 50.65 213.16 50.81 213.04C50.9767 212.92 51.06 212.76 51.06 212.56C51.06 212.387 50.9833 212.243 50.83 212.13C50.6833 212.017 50.4967 211.913 50.27 211.82C50.0433 211.72 49.8 211.623 49.54 211.53C49.28 211.43 49.0367 211.31 48.81 211.17C48.5833 211.03 48.3933 210.863 48.24 210.67C48.0933 210.47 48.02 210.22 48.02 209.92C48.02 209.487 48.1667 209.133 48.46 208.86C48.7533 208.587 49.15 208.417 49.65 208.35V207.04H50.45V208.34C50.8033 208.38 51.1033 208.47 51.35 208.61C51.6033 208.75 51.8333 208.923 52.04 209.13L51.46 209.8C51.2267 209.627 51.0033 209.493 50.79 209.4C50.5833 209.307 50.3267 209.26 50.02 209.26C49.74 209.26 49.52 209.317 49.36 209.43C49.2067 209.543 49.13 209.7 49.13 209.9C49.13 210.053 49.2033 210.18 49.35 210.28C49.5033 210.38 49.6933 210.477 49.92 210.57C50.1467 210.657 50.39 210.75 50.65 210.85C50.9167 210.943 51.1633 211.06 51.39 211.2C51.6167 211.34 51.8033 211.513 51.95 211.72C52.1033 211.92 52.18 212.173 52.18 212.48C52.18 212.907 52.0267 213.27 51.72 213.57C51.42 213.863 50.9967 214.05 50.45 214.13V215.6H49.65V214.15C49.3033 214.117 48.96 214.03 48.62 213.89C48.28 213.743 47.9867 213.567 47.74 213.36ZM56.1861 214.62C55.8528 214.62 55.5328 214.56 55.2261 214.44C54.9261 214.313 54.6594 214.123 54.4261 213.87C54.1994 213.617 54.0161 213.293 53.8761 212.9C53.7428 212.507 53.6761 212.043 53.6761 211.51C53.6761 210.89 53.7494 210.36 53.8961 209.92C54.0494 209.48 54.2528 209.12 54.5061 208.84C54.7594 208.56 55.0461 208.353 55.3661 208.22C55.6928 208.087 56.0328 208.02 56.3861 208.02C56.8061 208.02 57.1728 208.09 57.4861 208.23C57.8061 208.37 58.0728 208.54 58.2861 208.74L57.6661 209.44C57.5194 209.3 57.3394 209.187 57.1261 209.1C56.9194 209.007 56.7028 208.96 56.4761 208.96C56.2494 208.96 56.0328 209 55.8261 209.08C55.6261 209.16 55.4461 209.293 55.2861 209.48C55.1328 209.667 55.0061 209.913 54.9061 210.22C54.8128 210.52 54.7594 210.89 54.7461 211.33C54.9928 211.09 55.2628 210.903 55.5561 210.77C55.8494 210.63 56.1361 210.56 56.4161 210.56C56.7028 210.56 56.9661 210.6 57.2061 210.68C57.4461 210.76 57.6528 210.883 57.8261 211.05C58.0061 211.21 58.1461 211.413 58.2461 211.66C58.3461 211.907 58.3961 212.197 58.3961 212.53C58.3961 212.85 58.3361 213.14 58.2161 213.4C58.0961 213.653 57.9328 213.87 57.7261 214.05C57.5261 214.23 57.2928 214.37 57.0261 214.47C56.7594 214.57 56.4794 214.62 56.1861 214.62ZM56.1761 213.74C56.3361 213.74 56.4828 213.713 56.6161 213.66C56.7561 213.607 56.8794 213.53 56.9861 213.43C57.0928 213.323 57.1761 213.197 57.2361 213.05C57.2961 212.897 57.3261 212.723 57.3261 212.53C57.3261 212.15 57.2228 211.867 57.0161 211.68C56.8161 211.493 56.5361 211.4 56.1761 211.4C55.9628 211.4 55.7361 211.457 55.4961 211.57C55.2561 211.677 55.0194 211.867 54.7861 212.14C54.8594 212.707 55.0194 213.117 55.2661 213.37C55.5128 213.617 55.8161 213.74 56.1761 213.74ZM61.9922 214.62C61.2655 214.62 60.6889 214.333 60.2622 213.76C59.8422 213.187 59.6322 212.363 59.6322 211.29C59.6322 210.21 59.8422 209.397 60.2622 208.85C60.6889 208.297 61.2655 208.02 61.9922 208.02C62.7189 208.02 63.2922 208.297 63.7122 208.85C64.1389 209.397 64.3522 210.21 64.3522 211.29C64.3522 212.363 64.1389 213.187 63.7122 213.76C63.2922 214.333 62.7189 214.62 61.9922 214.62ZM61.9922 213.72C62.1789 213.72 62.3522 213.677 62.5122 213.59C62.6789 213.497 62.8189 213.353 62.9322 213.16C63.0522 212.967 63.1455 212.717 63.2122 212.41C63.2789 212.097 63.3122 211.723 63.3122 211.29C63.3122 210.857 63.2789 210.49 63.2122 210.19C63.1455 209.883 63.0522 209.637 62.9322 209.45C62.8189 209.263 62.6789 209.13 62.5122 209.05C62.3522 208.963 62.1789 208.92 61.9922 208.92C61.7989 208.92 61.6222 208.963 61.4622 209.05C61.3022 209.13 61.1622 209.263 61.0422 209.45C60.9289 209.637 60.8389 209.883 60.7722 210.19C60.7055 210.49 60.6722 210.857 60.6722 211.29C60.6722 211.723 60.7055 212.097 60.7722 212.41C60.8389 212.717 60.9289 212.967 61.0422 213.16C61.1622 213.353 61.3022 213.497 61.4622 213.59C61.6222 213.677 61.7989 213.72 61.9922 213.72ZM61.9922 211.96C61.7989 211.96 61.6355 211.897 61.5022 211.77C61.3689 211.643 61.3022 211.47 61.3022 211.25C61.3022 211.03 61.3689 210.857 61.5022 210.73C61.6355 210.603 61.7989 210.54 61.9922 210.54C62.1855 210.54 62.3489 210.603 62.4822 210.73C62.6155 210.857 62.6822 211.03 62.6822 211.25C62.6822 211.47 62.6155 211.643 62.4822 211.77C62.3489 211.897 62.1855 211.96 61.9922 211.96ZM65.8483 214.5V207.96H67.8783C68.2183 207.96 68.5283 207.99 68.8083 208.05C69.0949 208.103 69.3383 208.193 69.5383 208.32C69.7449 208.44 69.9049 208.603 70.0183 208.81C70.1383 209.017 70.1983 209.27 70.1983 209.57C70.1983 209.883 70.1049 210.173 69.9183 210.44C69.7383 210.707 69.4549 210.89 69.0683 210.99V211.03C69.5416 211.11 69.9049 211.277 70.1583 211.53C70.4116 211.783 70.5383 212.133 70.5383 212.58C70.5383 212.907 70.4749 213.19 70.3483 213.43C70.2283 213.67 70.0549 213.87 69.8283 214.03C69.6083 214.19 69.3449 214.31 69.0383 214.39C68.7383 214.463 68.4083 214.5 68.0483 214.5H65.8483ZM67.0083 210.65H67.7783C68.2383 210.65 68.5649 210.57 68.7583 210.41C68.9583 210.25 69.0583 210.017 69.0583 209.71C69.0583 209.41 68.9549 209.2 68.7483 209.08C68.5416 208.953 68.2249 208.89 67.7983 208.89H67.0083V210.65ZM67.0083 213.57H67.9283C68.4083 213.57 68.7716 213.487 69.0183 213.32C69.2716 213.147 69.3983 212.873 69.3983 212.5C69.3983 212.153 69.2749 211.907 69.0283 211.76C68.7883 211.607 68.4216 211.53 67.9283 211.53H67.0083V213.57Z" fill="#F2F2F2"/>
<path d="M47.74 274.86L48.26 274.07C48.5467 274.263 48.8367 274.42 49.13 274.54C49.4233 274.66 49.7433 274.72 50.09 274.72C50.41 274.72 50.65 274.66 50.81 274.54C50.9767 274.42 51.06 274.26 51.06 274.06C51.06 273.887 50.9833 273.743 50.83 273.63C50.6833 273.517 50.4967 273.413 50.27 273.32C50.0433 273.22 49.8 273.123 49.54 273.03C49.28 272.93 49.0367 272.81 48.81 272.67C48.5833 272.53 48.3933 272.363 48.24 272.17C48.0933 271.97 48.02 271.72 48.02 271.42C48.02 270.987 48.1667 270.633 48.46 270.36C48.7533 270.087 49.15 269.917 49.65 269.85V268.54H50.45V269.84C50.8033 269.88 51.1033 269.97 51.35 270.11C51.6033 270.25 51.8333 270.423 52.04 270.63L51.46 271.3C51.2267 271.127 51.0033 270.993 50.79 270.9C50.5833 270.807 50.3267 270.76 50.02 270.76C49.74 270.76 49.52 270.817 49.36 270.93C49.2067 271.043 49.13 271.2 49.13 271.4C49.13 271.553 49.2033 271.68 49.35 271.78C49.5033 271.88 49.6933 271.977 49.92 272.07C50.1467 272.157 50.39 272.25 50.65 272.35C50.9167 272.443 51.1633 272.56 51.39 272.7C51.6167 272.84 51.8033 273.013 51.95 273.22C52.1033 273.42 52.18 273.673 52.18 273.98C52.18 274.407 52.0267 274.77 51.72 275.07C51.42 275.363 50.9967 275.55 50.45 275.63V277.1H49.65V275.65C49.3033 275.617 48.96 275.53 48.62 275.39C48.28 275.243 47.9867 275.067 47.74 274.86ZM56.5361 276V274.36H53.3661V273.58L56.2861 269.63H57.6161V273.47H58.5161V274.36H57.6161V276H56.5361ZM54.5361 273.47H56.5361V271.95C56.5428 271.757 56.5494 271.547 56.5561 271.32C56.5694 271.093 56.5828 270.883 56.5961 270.69H56.5461C56.4394 270.857 56.3294 271.023 56.2161 271.19C56.1028 271.357 55.9894 271.527 55.8761 271.7L54.5361 273.47ZM61.9922 276.12C61.2655 276.12 60.6889 275.833 60.2622 275.26C59.8422 274.687 59.6322 273.863 59.6322 272.79C59.6322 271.71 59.8422 270.897 60.2622 270.35C60.6889 269.797 61.2655 269.52 61.9922 269.52C62.7189 269.52 63.2922 269.797 63.7122 270.35C64.1389 270.897 64.3522 271.71 64.3522 272.79C64.3522 273.863 64.1389 274.687 63.7122 275.26C63.2922 275.833 62.7189 276.12 61.9922 276.12ZM61.9922 275.22C62.1789 275.22 62.3522 275.177 62.5122 275.09C62.6789 274.997 62.8189 274.853 62.9322 274.66C63.0522 274.467 63.1455 274.217 63.2122 273.91C63.2789 273.597 63.3122 273.223 63.3122 272.79C63.3122 272.357 63.2789 271.99 63.2122 271.69C63.1455 271.383 63.0522 271.137 62.9322 270.95C62.8189 270.763 62.6789 270.63 62.5122 270.55C62.3522 270.463 62.1789 270.42 61.9922 270.42C61.7989 270.42 61.6222 270.463 61.4622 270.55C61.3022 270.63 61.1622 270.763 61.0422 270.95C60.9289 271.137 60.8389 271.383 60.7722 271.69C60.7055 271.99 60.6722 272.357 60.6722 272.79C60.6722 273.223 60.7055 273.597 60.7722 273.91C60.8389 274.217 60.9289 274.467 61.0422 274.66C61.1622 274.853 61.3022 274.997 61.4622 275.09C61.6222 275.177 61.7989 275.22 61.9922 275.22ZM61.9922 273.46C61.7989 273.46 61.6355 273.397 61.5022 273.27C61.3689 273.143 61.3022 272.97 61.3022 272.75C61.3022 272.53 61.3689 272.357 61.5022 272.23C61.6355 272.103 61.7989 272.04 61.9922 272.04C62.1855 272.04 62.3489 272.103 62.4822 272.23C62.6155 272.357 62.6822 272.53 62.6822 272.75C62.6822 272.97 62.6155 273.143 62.4822 273.27C62.3489 273.397 62.1855 273.46 61.9922 273.46ZM65.8483 276V269.46H67.8783C68.2183 269.46 68.5283 269.49 68.8083 269.55C69.0949 269.603 69.3383 269.693 69.5383 269.82C69.7449 269.94 69.9049 270.103 70.0183 270.31C70.1383 270.517 70.1983 270.77 70.1983 271.07C70.1983 271.383 70.1049 271.673 69.9183 271.94C69.7383 272.207 69.4549 272.39 69.0683 272.49V272.53C69.5416 272.61 69.9049 272.777 70.1583 273.03C70.4116 273.283 70.5383 273.633 70.5383 274.08C70.5383 274.407 70.4749 274.69 70.3483 274.93C70.2283 275.17 70.0549 275.37 69.8283 275.53C69.6083 275.69 69.3449 275.81 69.0383 275.89C68.7383 275.963 68.4083 276 68.0483 276H65.8483ZM67.0083 272.15H67.7783C68.2383 272.15 68.5649 272.07 68.7583 271.91C68.9583 271.75 69.0583 271.517 69.0583 271.21C69.0583 270.91 68.9549 270.7 68.7483 270.58C68.5416 270.453 68.2249 270.39 67.7983 270.39H67.0083V272.15ZM67.0083 275.07H67.9283C68.4083 275.07 68.7716 274.987 69.0183 274.82C69.2716 274.647 69.3983 274.373 69.3983 274C69.3983 273.653 69.2749 273.407 69.0283 273.26C68.7883 273.107 68.4216 273.03 67.9283 273.03H67.0083V275.07Z" fill="#F2F2F2"/>
<path d="M47.74 335.36L48.26 334.57C48.5467 334.763 48.8367 334.92 49.13 335.04C49.4233 335.16 49.7433 335.22 50.09 335.22C50.41 335.22 50.65 335.16 50.81 335.04C50.9767 334.92 51.06 334.76 51.06 334.56C51.06 334.387 50.9833 334.243 50.83 334.13C50.6833 334.017 50.4967 333.913 50.27 333.82C50.0433 333.72 49.8 333.623 49.54 333.53C49.28 333.43 49.0367 333.31 48.81 333.17C48.5833 333.03 48.3933 332.863 48.24 332.67C48.0933 332.47 48.02 332.22 48.02 331.92C48.02 331.487 48.1667 331.133 48.46 330.86C48.7533 330.587 49.15 330.417 49.65 330.35V329.04H50.45V330.34C50.8033 330.38 51.1033 330.47 51.35 330.61C51.6033 330.75 51.8333 330.923 52.04 331.13L51.46 331.8C51.2267 331.627 51.0033 331.493 50.79 331.4C50.5833 331.307 50.3267 331.26 50.02 331.26C49.74 331.26 49.52 331.317 49.36 331.43C49.2067 331.543 49.13 331.7 49.13 331.9C49.13 332.053 49.2033 332.18 49.35 332.28C49.5033 332.38 49.6933 332.477 49.92 332.57C50.1467 332.657 50.39 332.75 50.65 332.85C50.9167 332.943 51.1633 333.06 51.39 333.2C51.6167 333.34 51.8033 333.513 51.95 333.72C52.1033 333.92 52.18 334.173 52.18 334.48C52.18 334.907 52.0267 335.27 51.72 335.57C51.42 335.863 50.9967 336.05 50.45 336.13V337.6H49.65V336.15C49.3033 336.117 48.96 336.03 48.62 335.89C48.28 335.743 47.9867 335.567 47.74 335.36ZM53.6461 336.5V335.83C54.1461 335.403 54.5928 335.013 54.9861 334.66C55.3794 334.3 55.7128 333.967 55.9861 333.66C56.2661 333.353 56.4794 333.067 56.6261 332.8C56.7728 332.533 56.8461 332.277 56.8461 332.03C56.8461 331.69 56.7428 331.423 56.5361 331.23C56.3294 331.03 56.0261 330.93 55.6261 330.93C55.3461 330.93 55.0894 331 54.8561 331.14C54.6294 331.28 54.4194 331.447 54.2261 331.64L53.5961 331C53.9028 330.687 54.2261 330.447 54.5661 330.28C54.9061 330.107 55.3094 330.02 55.7761 330.02C56.1028 330.02 56.3994 330.067 56.6661 330.16C56.9328 330.253 57.1594 330.387 57.3461 330.56C57.5394 330.727 57.6861 330.93 57.7861 331.17C57.8928 331.41 57.9461 331.677 57.9461 331.97C57.9461 332.25 57.8761 332.537 57.7361 332.83C57.6028 333.117 57.4194 333.41 57.1861 333.71C56.9528 334.003 56.6728 334.307 56.3461 334.62C56.0261 334.933 55.6828 335.257 55.3161 335.59C55.5028 335.577 55.6994 335.563 55.9061 335.55C56.1128 335.53 56.3028 335.52 56.4761 335.52H58.2761V336.5H53.6461ZM61.9922 336.62C61.2655 336.62 60.6889 336.333 60.2622 335.76C59.8422 335.187 59.6322 334.363 59.6322 333.29C59.6322 332.21 59.8422 331.397 60.2622 330.85C60.6889 330.297 61.2655 330.02 61.9922 330.02C62.7189 330.02 63.2922 330.297 63.7122 330.85C64.1389 331.397 64.3522 332.21 64.3522 333.29C64.3522 334.363 64.1389 335.187 63.7122 335.76C63.2922 336.333 62.7189 336.62 61.9922 336.62ZM61.9922 335.72C62.1789 335.72 62.3522 335.677 62.5122 335.59C62.6789 335.497 62.8189 335.353 62.9322 335.16C63.0522 334.967 63.1455 334.717 63.2122 334.41C63.2789 334.097 63.3122 333.723 63.3122 333.29C63.3122 332.857 63.2789 332.49 63.2122 332.19C63.1455 331.883 63.0522 331.637 62.9322 331.45C62.8189 331.263 62.6789 331.13 62.5122 331.05C62.3522 330.963 62.1789 330.92 61.9922 330.92C61.7989 330.92 61.6222 330.963 61.4622 331.05C61.3022 331.13 61.1622 331.263 61.0422 331.45C60.9289 331.637 60.8389 331.883 60.7722 332.19C60.7055 332.49 60.6722 332.857 60.6722 333.29C60.6722 333.723 60.7055 334.097 60.7722 334.41C60.8389 334.717 60.9289 334.967 61.0422 335.16C61.1622 335.353 61.3022 335.497 61.4622 335.59C61.6222 335.677 61.7989 335.72 61.9922 335.72ZM61.9922 333.96C61.7989 333.96 61.6355 333.897 61.5022 333.77C61.3689 333.643 61.3022 333.47 61.3022 333.25C61.3022 333.03 61.3689 332.857 61.5022 332.73C61.6355 332.603 61.7989 332.54 61.9922 332.54C62.1855 332.54 62.3489 332.603 62.4822 332.73C62.6155 332.857 62.6822 333.03 62.6822 333.25C62.6822 333.47 62.6155 333.643 62.4822 333.77C62.3489 333.897 62.1855 333.96 61.9922 333.96ZM65.8483 336.5V329.96H67.8783C68.2183 329.96 68.5283 329.99 68.8083 330.05C69.0949 330.103 69.3383 330.193 69.5383 330.32C69.7449 330.44 69.9049 330.603 70.0183 330.81C70.1383 331.017 70.1983 331.27 70.1983 331.57C70.1983 331.883 70.1049 332.173 69.9183 332.44C69.7383 332.707 69.4549 332.89 69.0683 332.99V333.03C69.5416 333.11 69.9049 333.277 70.1583 333.53C70.4116 333.783 70.5383 334.133 70.5383 334.58C70.5383 334.907 70.4749 335.19 70.3483 335.43C70.2283 335.67 70.0549 335.87 69.8283 336.03C69.6083 336.19 69.3449 336.31 69.0383 336.39C68.7383 336.463 68.4083 336.5 68.0483 336.5H65.8483ZM67.0083 332.65H67.7783C68.2383 332.65 68.5649 332.57 68.7583 332.41C68.9583 332.25 69.0583 332.017 69.0583 331.71C69.0583 331.41 68.9549 331.2 68.7483 331.08C68.5416 330.953 68.2249 330.89 67.7983 330.89H67.0083V332.65ZM67.0083 335.57H67.9283C68.4083 335.57 68.7716 335.487 69.0183 335.32C69.2716 335.147 69.3983 334.873 69.3983 334.5C69.3983 334.153 69.2749 333.907 69.0283 333.76C68.7883 333.607 68.4216 333.53 67.9283 333.53H67.0083V335.57Z" fill="#F2F2F2"/>
<path d="M47.74 396.86L48.26 396.07C48.5467 396.263 48.8367 396.42 49.13 396.54C49.4233 396.66 49.7433 396.72 50.09 396.72C50.41 396.72 50.65 396.66 50.81 396.54C50.9767 396.42 51.06 396.26 51.06 396.06C51.06 395.887 50.9833 395.743 50.83 395.63C50.6833 395.517 50.4967 395.413 50.27 395.32C50.0433 395.22 49.8 395.123 49.54 395.03C49.28 394.93 49.0367 394.81 48.81 394.67C48.5833 394.53 48.3933 394.363 48.24 394.17C48.0933 393.97 48.02 393.72 48.02 393.42C48.02 392.987 48.1667 392.633 48.46 392.36C48.7533 392.087 49.15 391.917 49.65 391.85V390.54H50.45V391.84C50.8033 391.88 51.1033 391.97 51.35 392.11C51.6033 392.25 51.8333 392.423 52.04 392.63L51.46 393.3C51.2267 393.127 51.0033 392.993 50.79 392.9C50.5833 392.807 50.3267 392.76 50.02 392.76C49.74 392.76 49.52 392.817 49.36 392.93C49.2067 393.043 49.13 393.2 49.13 393.4C49.13 393.553 49.2033 393.68 49.35 393.78C49.5033 393.88 49.6933 393.977 49.92 394.07C50.1467 394.157 50.39 394.25 50.65 394.35C50.9167 394.443 51.1633 394.56 51.39 394.7C51.6167 394.84 51.8033 395.013 51.95 395.22C52.1033 395.42 52.18 395.673 52.18 395.98C52.18 396.407 52.0267 396.77 51.72 397.07C51.42 397.363 50.9967 397.55 50.45 397.63V399.1H49.65V397.65C49.3033 397.617 48.96 397.53 48.62 397.39C48.28 397.243 47.9867 397.067 47.74 396.86ZM55.9961 398.12C55.2694 398.12 54.6928 397.833 54.2661 397.26C53.8461 396.687 53.6361 395.863 53.6361 394.79C53.6361 393.71 53.8461 392.897 54.2661 392.35C54.6928 391.797 55.2694 391.52 55.9961 391.52C56.7228 391.52 57.2961 391.797 57.7161 392.35C58.1428 392.897 58.3561 393.71 58.3561 394.79C58.3561 395.863 58.1428 396.687 57.7161 397.26C57.2961 397.833 56.7228 398.12 55.9961 398.12ZM55.9961 397.22C56.1828 397.22 56.3561 397.177 56.5161 397.09C56.6828 396.997 56.8228 396.853 56.9361 396.66C57.0561 396.467 57.1494 396.217 57.2161 395.91C57.2828 395.597 57.3161 395.223 57.3161 394.79C57.3161 394.357 57.2828 393.99 57.2161 393.69C57.1494 393.383 57.0561 393.137 56.9361 392.95C56.8228 392.763 56.6828 392.63 56.5161 392.55C56.3561 392.463 56.1828 392.42 55.9961 392.42C55.8028 392.42 55.6261 392.463 55.4661 392.55C55.3061 392.63 55.1661 392.763 55.0461 392.95C54.9328 393.137 54.8428 393.383 54.7761 393.69C54.7094 393.99 54.6761 394.357 54.6761 394.79C54.6761 395.223 54.7094 395.597 54.7761 395.91C54.8428 396.217 54.9328 396.467 55.0461 396.66C55.1661 396.853 55.3061 396.997 55.4661 397.09C55.6261 397.177 55.8028 397.22 55.9961 397.22ZM55.9961 395.46C55.8028 395.46 55.6394 395.397 55.5061 395.27C55.3728 395.143 55.3061 394.97 55.3061 394.75C55.3061 394.53 55.3728 394.357 55.5061 394.23C55.6394 394.103 55.8028 394.04 55.9961 394.04C56.1894 394.04 56.3528 394.103 56.4861 394.23C56.6194 394.357 56.6861 394.53 56.6861 394.75C56.6861 394.97 56.6194 395.143 56.4861 395.27C56.3528 395.397 56.1894 395.46 55.9961 395.46Z" fill="#F2F2F2"/>
<path d="M109 385C161.413 375.219 198.077 295.953 260.385 295.953C322.692 295.953 362.857 369.788 409.047 359.122C455.237 348.457 466.231 293.544 482.846 255.105C499.461 216.666 517.319 184.719 549.467 181.516C581.615 178.312 595.645 209.173 619.923 197.919C644.668 187.414 661.461 144 697 144" stroke="#E6C153" stroke-width="3" stroke-linecap="round"/>
<path d="M109 400.488C173.228 402.822 207.985 303.086 207.985 303.086C207.985 303.086 226.259 246.725 258.292 233.245C290.326 219.766 346.859 264.906 400.784 236.855C454.709 208.805 453.231 162.833 508.633 154.262C564.035 145.691 579.196 197.784 623.694 168.231C668.191 138.678 697 141.016 697 141.016" stroke="#8247E5" stroke-width="3" stroke-linecap="round"/>
<path d="M111.38 424.52L111.15 425.32H112.81L112.58 424.52C112.487 424.173 112.39 423.82 112.29 423.46C112.19 423.093 112.093 422.727 112 422.36H111.96C111.867 422.727 111.77 423.093 111.67 423.46C111.577 423.82 111.48 424.173 111.38 424.52ZM109.2 428L111.32 421.46H112.68L114.8 428H113.57L113.07 426.23H110.89L110.38 428H109.2ZM115.816 429.94V423.09H116.766L116.856 423.65H116.886C117.099 423.457 117.343 423.297 117.616 423.17C117.896 423.037 118.176 422.97 118.456 422.97C118.776 422.97 119.059 423.03 119.306 423.15C119.559 423.263 119.769 423.43 119.936 423.65C120.109 423.87 120.239 424.133 120.326 424.44C120.419 424.747 120.466 425.09 120.466 425.47C120.466 425.89 120.406 426.267 120.286 426.6C120.166 426.927 120.003 427.203 119.796 427.43C119.596 427.65 119.363 427.82 119.096 427.94C118.836 428.06 118.566 428.12 118.286 428.12C118.059 428.12 117.826 428.07 117.586 427.97C117.353 427.87 117.139 427.727 116.946 427.54H116.916L116.976 428.4V429.94H115.816ZM118.046 427.17C118.399 427.17 118.693 427.03 118.926 426.75C119.159 426.463 119.276 426.04 119.276 425.48C119.276 424.987 119.186 424.603 119.006 424.33C118.826 424.057 118.536 423.92 118.136 423.92C117.949 423.92 117.759 423.967 117.566 424.06C117.373 424.153 117.176 424.303 116.976 424.51V426.72C117.156 426.887 117.339 427.003 117.526 427.07C117.719 427.137 117.893 427.17 118.046 427.17ZM122.292 428V423.09H123.242L123.342 424.2H123.372C123.626 423.8 123.929 423.497 124.282 423.29C124.642 423.077 125.036 422.97 125.462 422.97C125.662 422.97 125.832 422.987 125.972 423.02C126.119 423.047 126.266 423.097 126.412 423.17L126.172 424.14C126.012 424.087 125.869 424.05 125.742 424.03C125.622 424.003 125.469 423.99 125.282 423.99C124.942 423.99 124.616 424.087 124.302 424.28C123.989 424.473 123.706 424.81 123.452 425.29V428H122.292ZM127.868 428V427.06H129.638V422.88H128.228V422.16C128.428 422.133 128.608 422.103 128.768 422.07C128.928 422.03 129.075 421.99 129.208 421.95C129.348 421.91 129.478 421.863 129.598 421.81C129.718 421.757 129.835 421.7 129.948 421.64H130.788V427.06H132.348V428H127.868ZM135.074 428C135.101 427.433 135.154 426.917 135.234 426.45C135.321 425.977 135.441 425.53 135.594 425.11C135.754 424.683 135.954 424.27 136.194 423.87C136.434 423.463 136.728 423.043 137.074 422.61H133.644V421.64H138.344V422.34C137.931 422.8 137.594 423.24 137.334 423.66C137.074 424.073 136.868 424.497 136.714 424.93C136.561 425.363 136.451 425.83 136.384 426.33C136.318 426.823 136.271 427.38 136.244 428H135.074Z" fill="#F2F2F2"/>
<path d="M206.38 424.52L206.15 425.32H207.81L207.58 424.52C207.487 424.173 207.39 423.82 207.29 423.46C207.19 423.093 207.093 422.727 207 422.36H206.96C206.867 422.727 206.77 423.093 206.67 423.46C206.577 423.82 206.48 424.173 206.38 424.52ZM204.2 428L206.32 421.46H207.68L209.8 428H208.57L208.07 426.23H205.89L205.38 428H204.2ZM210.816 429.94V423.09H211.766L211.856 423.65H211.886C212.099 423.457 212.343 423.297 212.616 423.17C212.896 423.037 213.176 422.97 213.456 422.97C213.776 422.97 214.059 423.03 214.306 423.15C214.559 423.263 214.769 423.43 214.936 423.65C215.109 423.87 215.239 424.133 215.326 424.44C215.419 424.747 215.466 425.09 215.466 425.47C215.466 425.89 215.406 426.267 215.286 426.6C215.166 426.927 215.003 427.203 214.796 427.43C214.596 427.65 214.363 427.82 214.096 427.94C213.836 428.06 213.566 428.12 213.286 428.12C213.059 428.12 212.826 428.07 212.586 427.97C212.353 427.87 212.139 427.727 211.946 427.54H211.916L211.976 428.4V429.94H210.816ZM213.046 427.17C213.399 427.17 213.693 427.03 213.926 426.75C214.159 426.463 214.276 426.04 214.276 425.48C214.276 424.987 214.186 424.603 214.006 424.33C213.826 424.057 213.536 423.92 213.136 423.92C212.949 423.92 212.759 423.967 212.566 424.06C212.373 424.153 212.176 424.303 211.976 424.51V426.72C212.156 426.887 212.339 427.003 212.526 427.07C212.719 427.137 212.893 427.17 213.046 427.17ZM217.292 428V423.09H218.242L218.342 424.2H218.372C218.626 423.8 218.929 423.497 219.282 423.29C219.642 423.077 220.036 422.97 220.462 422.97C220.662 422.97 220.832 422.987 220.972 423.02C221.119 423.047 221.266 423.097 221.412 423.17L221.172 424.14C221.012 424.087 220.869 424.05 220.742 424.03C220.622 424.003 220.469 423.99 220.282 423.99C219.942 423.99 219.616 424.087 219.302 424.28C218.989 424.473 218.706 424.81 218.452 425.29V428H217.292ZM222.638 428V427.33C223.138 426.903 223.585 426.513 223.978 426.16C224.372 425.8 224.705 425.467 224.978 425.16C225.258 424.853 225.472 424.567 225.618 424.3C225.765 424.033 225.838 423.777 225.838 423.53C225.838 423.19 225.735 422.923 225.528 422.73C225.322 422.53 225.018 422.43 224.618 422.43C224.338 422.43 224.082 422.5 223.848 422.64C223.622 422.78 223.412 422.947 223.218 423.14L222.588 422.5C222.895 422.187 223.218 421.947 223.558 421.78C223.898 421.607 224.302 421.52 224.768 421.52C225.095 421.52 225.392 421.567 225.658 421.66C225.925 421.753 226.152 421.887 226.338 422.06C226.532 422.227 226.678 422.43 226.778 422.67C226.885 422.91 226.938 423.177 226.938 423.47C226.938 423.75 226.868 424.037 226.728 424.33C226.595 424.617 226.412 424.91 226.178 425.21C225.945 425.503 225.665 425.807 225.338 426.12C225.018 426.433 224.675 426.757 224.308 427.09C224.495 427.077 224.692 427.063 224.898 427.05C225.105 427.03 225.295 427.02 225.468 427.02H227.268V428H222.638ZM228.864 428V427.06H230.634V422.88H229.224V422.16C229.424 422.133 229.604 422.103 229.764 422.07C229.924 422.03 230.071 421.99 230.204 421.95C230.344 421.91 230.474 421.863 230.594 421.81C230.714 421.757 230.831 421.7 230.944 421.64H231.784V427.06H233.344V428H228.864Z" fill="#F2F2F2"/>
<path d="M301.38 424.52L301.15 425.32H302.81L302.58 424.52C302.487 424.173 302.39 423.82 302.29 423.46C302.19 423.093 302.093 422.727 302 422.36H301.96C301.867 422.727 301.77 423.093 301.67 423.46C301.577 423.82 301.48 424.173 301.38 424.52ZM299.2 428L301.32 421.46H302.68L304.8 428H303.57L303.07 426.23H300.89L300.38 428H299.2ZM305.816 429.94V423.09H306.766L306.856 423.65H306.886C307.099 423.457 307.343 423.297 307.616 423.17C307.896 423.037 308.176 422.97 308.456 422.97C308.776 422.97 309.059 423.03 309.306 423.15C309.559 423.263 309.769 423.43 309.936 423.65C310.109 423.87 310.239 424.133 310.326 424.44C310.419 424.747 310.466 425.09 310.466 425.47C310.466 425.89 310.406 426.267 310.286 426.6C310.166 426.927 310.003 427.203 309.796 427.43C309.596 427.65 309.363 427.82 309.096 427.94C308.836 428.06 308.566 428.12 308.286 428.12C308.059 428.12 307.826 428.07 307.586 427.97C307.353 427.87 307.139 427.727 306.946 427.54H306.916L306.976 428.4V429.94H305.816ZM308.046 427.17C308.399 427.17 308.693 427.03 308.926 426.75C309.159 426.463 309.276 426.04 309.276 425.48C309.276 424.987 309.186 424.603 309.006 424.33C308.826 424.057 308.536 423.92 308.136 423.92C307.949 423.92 307.759 423.967 307.566 424.06C307.373 424.153 307.176 424.303 306.976 424.51V426.72C307.156 426.887 307.339 427.003 307.526 427.07C307.719 427.137 307.893 427.17 308.046 427.17ZM312.292 428V423.09H313.242L313.342 424.2H313.372C313.626 423.8 313.929 423.497 314.282 423.29C314.642 423.077 315.036 422.97 315.462 422.97C315.662 422.97 315.832 422.987 315.972 423.02C316.119 423.047 316.266 423.097 316.412 423.17L316.172 424.14C316.012 424.087 315.869 424.05 315.742 424.03C315.622 424.003 315.469 423.99 315.282 423.99C314.942 423.99 314.616 424.087 314.302 424.28C313.989 424.473 313.706 424.81 313.452 425.29V428H312.292ZM317.638 428V427.33C318.138 426.903 318.585 426.513 318.978 426.16C319.372 425.8 319.705 425.467 319.978 425.16C320.258 424.853 320.472 424.567 320.618 424.3C320.765 424.033 320.838 423.777 320.838 423.53C320.838 423.19 320.735 422.923 320.528 422.73C320.322 422.53 320.018 422.43 319.618 422.43C319.338 422.43 319.082 422.5 318.848 422.64C318.622 422.78 318.412 422.947 318.218 423.14L317.588 422.5C317.895 422.187 318.218 421.947 318.558 421.78C318.898 421.607 319.302 421.52 319.768 421.52C320.095 421.52 320.392 421.567 320.658 421.66C320.925 421.753 321.152 421.887 321.338 422.06C321.532 422.227 321.678 422.43 321.778 422.67C321.885 422.91 321.938 423.177 321.938 423.47C321.938 423.75 321.868 424.037 321.728 424.33C321.595 424.617 321.412 424.91 321.178 425.21C320.945 425.503 320.665 425.807 320.338 426.12C320.018 426.433 319.675 426.757 319.308 427.09C319.495 427.077 319.692 427.063 319.898 427.05C320.105 427.03 320.295 427.02 320.468 427.02H322.268V428H317.638ZM325.824 428.12C325.264 428.12 324.798 428.033 324.424 427.86C324.058 427.68 323.748 427.473 323.494 427.24L324.024 426.5C324.238 426.68 324.474 426.84 324.734 426.98C325.001 427.113 325.318 427.18 325.684 427.18C326.084 427.18 326.418 427.073 326.684 426.86C326.958 426.647 327.094 426.347 327.094 425.96C327.094 425.58 326.968 425.287 326.714 425.08C326.468 424.873 326.141 424.77 325.734 424.77C325.501 424.77 325.301 424.8 325.134 424.86C324.968 424.913 324.774 425.003 324.554 425.13L324.004 424.78L324.204 421.64H327.954V422.61H325.204L325.064 424.15C325.231 424.083 325.391 424.033 325.544 424C325.698 423.96 325.871 423.94 326.064 423.94C326.364 423.94 326.648 423.98 326.914 424.06C327.181 424.14 327.411 424.263 327.604 424.43C327.804 424.59 327.961 424.797 328.074 425.05C328.194 425.297 328.254 425.59 328.254 425.93C328.254 426.277 328.188 426.587 328.054 426.86C327.921 427.133 327.741 427.363 327.514 427.55C327.288 427.737 327.028 427.88 326.734 427.98C326.448 428.073 326.144 428.12 325.824 428.12Z" fill="#F2F2F2"/>
<path d="M396.38 424.52L396.15 425.32H397.81L397.58 424.52C397.487 424.173 397.39 423.82 397.29 423.46C397.19 423.093 397.093 422.727 397 422.36H396.96C396.867 422.727 396.77 423.093 396.67 423.46C396.577 423.82 396.48 424.173 396.38 424.52ZM394.2 428L396.32 421.46H397.68L399.8 428H398.57L398.07 426.23H395.89L395.38 428H394.2ZM400.816 429.94V423.09H401.766L401.856 423.65H401.886C402.099 423.457 402.343 423.297 402.616 423.17C402.896 423.037 403.176 422.97 403.456 422.97C403.776 422.97 404.059 423.03 404.306 423.15C404.559 423.263 404.769 423.43 404.936 423.65C405.109 423.87 405.239 424.133 405.326 424.44C405.419 424.747 405.466 425.09 405.466 425.47C405.466 425.89 405.406 426.267 405.286 426.6C405.166 426.927 405.003 427.203 404.796 427.43C404.596 427.65 404.363 427.82 404.096 427.94C403.836 428.06 403.566 428.12 403.286 428.12C403.059 428.12 402.826 428.07 402.586 427.97C402.353 427.87 402.139 427.727 401.946 427.54H401.916L401.976 428.4V429.94H400.816ZM403.046 427.17C403.399 427.17 403.693 427.03 403.926 426.75C404.159 426.463 404.276 426.04 404.276 425.48C404.276 424.987 404.186 424.603 404.006 424.33C403.826 424.057 403.536 423.92 403.136 423.92C402.949 423.92 402.759 423.967 402.566 424.06C402.373 424.153 402.176 424.303 401.976 424.51V426.72C402.156 426.887 402.339 427.003 402.526 427.07C402.719 427.137 402.893 427.17 403.046 427.17ZM407.292 428V423.09H408.242L408.342 424.2H408.372C408.626 423.8 408.929 423.497 409.282 423.29C409.642 423.077 410.036 422.97 410.462 422.97C410.662 422.97 410.832 422.987 410.972 423.02C411.119 423.047 411.266 423.097 411.412 423.17L411.172 424.14C411.012 424.087 410.869 424.05 410.742 424.03C410.622 424.003 410.469 423.99 410.282 423.99C409.942 423.99 409.616 424.087 409.302 424.28C408.989 424.473 408.706 424.81 408.452 425.29V428H407.292ZM412.638 428V427.33C413.138 426.903 413.585 426.513 413.978 426.16C414.372 425.8 414.705 425.467 414.978 425.16C415.258 424.853 415.472 424.567 415.618 424.3C415.765 424.033 415.838 423.777 415.838 423.53C415.838 423.19 415.735 422.923 415.528 422.73C415.322 422.53 415.018 422.43 414.618 422.43C414.338 422.43 414.082 422.5 413.848 422.64C413.622 422.78 413.412 422.947 413.218 423.14L412.588 422.5C412.895 422.187 413.218 421.947 413.558 421.78C413.898 421.607 414.302 421.52 414.768 421.52C415.095 421.52 415.392 421.567 415.658 421.66C415.925 421.753 416.152 421.887 416.338 422.06C416.532 422.227 416.678 422.43 416.778 422.67C416.885 422.91 416.938 423.177 416.938 423.47C416.938 423.75 416.868 424.037 416.728 424.33C416.595 424.617 416.412 424.91 416.178 425.21C415.945 425.503 415.665 425.807 415.338 426.12C415.018 426.433 414.675 426.757 414.308 427.09C414.495 427.077 414.692 427.063 414.898 427.05C415.105 427.03 415.295 427.02 415.468 427.02H417.268V428H412.638ZM420.794 424.74C421.021 424.74 421.258 424.683 421.504 424.57C421.751 424.45 421.981 424.257 422.194 423.99C422.121 423.43 421.958 423.027 421.704 422.78C421.458 422.527 421.158 422.4 420.804 422.4C420.644 422.4 420.494 422.427 420.354 422.48C420.214 422.533 420.091 422.61 419.984 422.71C419.884 422.81 419.801 422.937 419.734 423.09C419.674 423.237 419.644 423.407 419.644 423.6C419.644 423.98 419.744 424.267 419.944 424.46C420.151 424.647 420.434 424.74 420.794 424.74ZM420.594 428.12C420.174 428.12 419.804 428.05 419.484 427.91C419.164 427.77 418.898 427.6 418.684 427.4L419.304 426.7C419.458 426.84 419.638 426.957 419.844 427.05C420.051 427.137 420.271 427.18 420.504 427.18C420.724 427.18 420.934 427.14 421.134 427.06C421.341 426.98 421.521 426.847 421.674 426.66C421.834 426.473 421.964 426.23 422.064 425.93C422.164 425.623 422.221 425.25 422.234 424.81C421.981 425.043 421.708 425.23 421.414 425.37C421.128 425.503 420.844 425.57 420.564 425.57C420.278 425.57 420.011 425.53 419.764 425.45C419.524 425.37 419.318 425.25 419.144 425.09C418.971 424.923 418.834 424.717 418.734 424.47C418.634 424.223 418.584 423.933 418.584 423.6C418.584 423.28 418.644 422.993 418.764 422.74C418.884 422.48 419.044 422.26 419.244 422.08C419.444 421.9 419.678 421.763 419.944 421.67C420.211 421.57 420.491 421.52 420.784 421.52C421.124 421.52 421.444 421.583 421.744 421.71C422.051 421.83 422.318 422.017 422.544 422.27C422.778 422.523 422.961 422.847 423.094 423.24C423.228 423.627 423.294 424.087 423.294 424.62C423.294 425.24 423.218 425.77 423.064 426.21C422.918 426.65 422.718 427.013 422.464 427.3C422.218 427.58 421.931 427.787 421.604 427.92C421.278 428.053 420.941 428.12 420.594 428.12Z" fill="#F2F2F2"/>
<path d="M489.65 428V421.46H490.93L491.71 424.01L491.98 424.99H492.02L492.28 424.01L493.07 421.46H494.35V428H493.33V425.36C493.33 425.187 493.337 424.98 493.35 424.74C493.363 424.5 493.377 424.253 493.39 424C493.41 423.747 493.43 423.503 493.45 423.27C493.47 423.037 493.487 422.84 493.5 422.68H493.47L493.03 424.2L492.31 426.27H491.65L490.94 424.2L490.51 422.68H490.48C490.5 422.84 490.52 423.037 490.54 423.27C490.56 423.503 490.577 423.747 490.59 424C490.61 424.253 490.623 424.5 490.63 424.74C490.643 424.98 490.65 425.187 490.65 425.36V428H489.65ZM497.346 428.12C497.106 428.12 496.886 428.083 496.686 428.01C496.486 427.943 496.313 427.847 496.166 427.72C496.019 427.593 495.906 427.443 495.826 427.27C495.746 427.09 495.706 426.893 495.706 426.68C495.706 426.407 495.769 426.167 495.896 425.96C496.023 425.747 496.223 425.567 496.496 425.42C496.769 425.273 497.119 425.153 497.546 425.06C497.973 424.967 498.489 424.9 499.096 424.86C499.076 424.58 498.976 424.35 498.796 424.17C498.616 423.99 498.326 423.9 497.926 423.9C497.646 423.9 497.369 423.953 497.096 424.06C496.829 424.16 496.569 424.28 496.316 424.42L495.896 423.65C496.196 423.477 496.539 423.32 496.926 423.18C497.313 423.04 497.716 422.97 498.136 422.97C498.823 422.97 499.346 423.153 499.706 423.52C500.066 423.88 500.246 424.403 500.246 425.09V428H499.306L499.216 427.39H499.186C498.926 427.59 498.636 427.763 498.316 427.91C498.003 428.05 497.679 428.12 497.346 428.12ZM497.696 427.22C497.943 427.22 498.179 427.167 498.406 427.06C498.639 426.947 498.869 426.8 499.096 426.62V425.58C498.656 425.613 498.289 425.66 497.996 425.72C497.703 425.773 497.469 425.843 497.296 425.93C497.123 426.017 496.999 426.117 496.926 426.23C496.853 426.337 496.816 426.457 496.816 426.59C496.816 426.81 496.899 426.97 497.066 427.07C497.239 427.17 497.449 427.22 497.696 427.22ZM502.362 430.02C502.229 430.02 502.102 430.01 501.982 429.99C501.862 429.977 501.756 429.953 501.662 429.92L501.882 429.02C501.949 429.04 502.016 429.057 502.082 429.07C502.149 429.083 502.219 429.09 502.292 429.09C502.606 429.09 502.856 429.01 503.042 428.85C503.229 428.697 503.372 428.497 503.472 428.25L503.592 427.94L501.392 423.09H502.542L503.552 425.5C503.646 425.72 503.736 425.953 503.822 426.2C503.909 426.447 503.999 426.693 504.092 426.94H504.132C504.206 426.707 504.286 426.467 504.372 426.22C504.459 425.973 504.542 425.733 504.622 425.5L505.512 423.09H506.602L504.552 428.22C504.446 428.5 504.326 428.75 504.192 428.97C504.066 429.19 503.916 429.377 503.742 429.53C503.569 429.69 503.369 429.81 503.142 429.89C502.916 429.977 502.656 430.02 502.362 430.02ZM509.818 428.12C509.272 428.12 508.805 428.033 508.418 427.86C508.032 427.687 507.722 427.473 507.488 427.22L508.028 426.48C508.242 426.673 508.488 426.84 508.768 426.98C509.055 427.113 509.372 427.18 509.718 427.18C510.112 427.18 510.435 427.097 510.688 426.93C510.948 426.757 511.078 426.52 511.078 426.22C511.078 426.053 511.042 425.903 510.968 425.77C510.895 425.637 510.775 425.523 510.608 425.43C510.448 425.337 510.232 425.267 509.958 425.22C509.692 425.167 509.362 425.14 508.968 425.14V424.3C509.308 424.3 509.598 424.277 509.838 424.23C510.078 424.177 510.272 424.107 510.418 424.02C510.572 423.927 510.682 423.817 510.748 423.69C510.822 423.563 510.858 423.427 510.858 423.28C510.858 423.013 510.755 422.807 510.548 422.66C510.348 422.507 510.078 422.43 509.738 422.43C509.458 422.43 509.198 422.487 508.958 422.6C508.725 422.707 508.502 422.85 508.288 423.03L507.688 422.32C507.982 422.08 508.302 421.887 508.648 421.74C508.995 421.593 509.375 421.52 509.788 421.52C510.115 421.52 510.415 421.557 510.688 421.63C510.962 421.703 511.195 421.813 511.388 421.96C511.588 422.1 511.742 422.277 511.848 422.49C511.962 422.697 512.018 422.933 512.018 423.2C512.018 423.56 511.902 423.86 511.668 424.1C511.435 424.34 511.122 424.527 510.728 424.66V424.7C510.935 424.753 511.128 424.827 511.308 424.92C511.495 425.007 511.655 425.117 511.788 425.25C511.928 425.383 512.038 425.537 512.118 425.71C512.198 425.883 512.238 426.073 512.238 426.28C512.238 426.573 512.172 426.833 512.038 427.06C511.912 427.287 511.738 427.48 511.518 427.64C511.298 427.793 511.042 427.913 510.748 428C510.455 428.08 510.145 428.12 509.818 428.12Z" fill="#F2F2F2"/>
<path d="M578.65 428V421.46H579.93L580.71 424.01L580.98 424.99H581.02L581.28 424.01L582.07 421.46H583.35V428H582.33V425.36C582.33 425.187 582.337 424.98 582.35 424.74C582.363 424.5 582.377 424.253 582.39 424C582.41 423.747 582.43 423.503 582.45 423.27C582.47 423.037 582.487 422.84 582.5 422.68H582.47L582.03 424.2L581.31 426.27H580.65L579.94 424.2L579.51 422.68H579.48C579.5 422.84 579.52 423.037 579.54 423.27C579.56 423.503 579.577 423.747 579.59 424C579.61 424.253 579.623 424.5 579.63 424.74C579.643 424.98 579.65 425.187 579.65 425.36V428H578.65ZM586.346 428.12C586.106 428.12 585.886 428.083 585.686 428.01C585.486 427.943 585.313 427.847 585.166 427.72C585.019 427.593 584.906 427.443 584.826 427.27C584.746 427.09 584.706 426.893 584.706 426.68C584.706 426.407 584.769 426.167 584.896 425.96C585.023 425.747 585.223 425.567 585.496 425.42C585.769 425.273 586.119 425.153 586.546 425.06C586.973 424.967 587.489 424.9 588.096 424.86C588.076 424.58 587.976 424.35 587.796 424.17C587.616 423.99 587.326 423.9 586.926 423.9C586.646 423.9 586.369 423.953 586.096 424.06C585.829 424.16 585.569 424.28 585.316 424.42L584.896 423.65C585.196 423.477 585.539 423.32 585.926 423.18C586.313 423.04 586.716 422.97 587.136 422.97C587.823 422.97 588.346 423.153 588.706 423.52C589.066 423.88 589.246 424.403 589.246 425.09V428H588.306L588.216 427.39H588.186C587.926 427.59 587.636 427.763 587.316 427.91C587.003 428.05 586.679 428.12 586.346 428.12ZM586.696 427.22C586.943 427.22 587.179 427.167 587.406 427.06C587.639 426.947 587.869 426.8 588.096 426.62V425.58C587.656 425.613 587.289 425.66 586.996 425.72C586.703 425.773 586.469 425.843 586.296 425.93C586.123 426.017 585.999 426.117 585.926 426.23C585.853 426.337 585.816 426.457 585.816 426.59C585.816 426.81 585.899 426.97 586.066 427.07C586.239 427.17 586.449 427.22 586.696 427.22ZM591.362 430.02C591.229 430.02 591.102 430.01 590.982 429.99C590.862 429.977 590.756 429.953 590.662 429.92L590.882 429.02C590.949 429.04 591.016 429.057 591.082 429.07C591.149 429.083 591.219 429.09 591.292 429.09C591.606 429.09 591.856 429.01 592.042 428.85C592.229 428.697 592.372 428.497 592.472 428.25L592.592 427.94L590.392 423.09H591.542L592.552 425.5C592.646 425.72 592.736 425.953 592.822 426.2C592.909 426.447 592.999 426.693 593.092 426.94H593.132C593.206 426.707 593.286 426.467 593.372 426.22C593.459 425.973 593.542 425.733 593.622 425.5L594.512 423.09H595.602L593.552 428.22C593.446 428.5 593.326 428.75 593.192 428.97C593.066 429.19 592.916 429.377 592.742 429.53C592.569 429.69 592.369 429.81 592.142 429.89C591.916 429.977 591.656 430.02 591.362 430.02ZM598.078 428C598.105 427.433 598.158 426.917 598.238 426.45C598.325 425.977 598.445 425.53 598.598 425.11C598.758 424.683 598.958 424.27 599.198 423.87C599.438 423.463 599.732 423.043 600.078 422.61H596.648V421.64H601.348V422.34C600.935 422.8 600.598 423.24 600.338 423.66C600.078 424.073 599.872 424.497 599.718 424.93C599.565 425.363 599.455 425.83 599.388 426.33C599.322 426.823 599.275 427.38 599.248 428H598.078Z" fill="#F2F2F2"/>
<path d="M667.65 428V421.46H668.93L669.71 424.01L669.98 424.99H670.02L670.28 424.01L671.07 421.46H672.35V428H671.33V425.36C671.33 425.187 671.337 424.98 671.35 424.74C671.363 424.5 671.377 424.253 671.39 424C671.41 423.747 671.43 423.503 671.45 423.27C671.47 423.037 671.487 422.84 671.5 422.68H671.47L671.03 424.2L670.31 426.27H669.65L668.94 424.2L668.51 422.68H668.48C668.5 422.84 668.52 423.037 668.54 423.27C668.56 423.503 668.577 423.747 668.59 424C668.61 424.253 668.623 424.5 668.63 424.74C668.643 424.98 668.65 425.187 668.65 425.36V428H667.65ZM675.346 428.12C675.106 428.12 674.886 428.083 674.686 428.01C674.486 427.943 674.313 427.847 674.166 427.72C674.019 427.593 673.906 427.443 673.826 427.27C673.746 427.09 673.706 426.893 673.706 426.68C673.706 426.407 673.769 426.167 673.896 425.96C674.023 425.747 674.223 425.567 674.496 425.42C674.769 425.273 675.119 425.153 675.546 425.06C675.973 424.967 676.489 424.9 677.096 424.86C677.076 424.58 676.976 424.35 676.796 424.17C676.616 423.99 676.326 423.9 675.926 423.9C675.646 423.9 675.369 423.953 675.096 424.06C674.829 424.16 674.569 424.28 674.316 424.42L673.896 423.65C674.196 423.477 674.539 423.32 674.926 423.18C675.313 423.04 675.716 422.97 676.136 422.97C676.823 422.97 677.346 423.153 677.706 423.52C678.066 423.88 678.246 424.403 678.246 425.09V428H677.306L677.216 427.39H677.186C676.926 427.59 676.636 427.763 676.316 427.91C676.003 428.05 675.679 428.12 675.346 428.12ZM675.696 427.22C675.943 427.22 676.179 427.167 676.406 427.06C676.639 426.947 676.869 426.8 677.096 426.62V425.58C676.656 425.613 676.289 425.66 675.996 425.72C675.703 425.773 675.469 425.843 675.296 425.93C675.123 426.017 674.999 426.117 674.926 426.23C674.853 426.337 674.816 426.457 674.816 426.59C674.816 426.81 674.899 426.97 675.066 427.07C675.239 427.17 675.449 427.22 675.696 427.22ZM680.362 430.02C680.229 430.02 680.102 430.01 679.982 429.99C679.862 429.977 679.756 429.953 679.662 429.92L679.882 429.02C679.949 429.04 680.016 429.057 680.082 429.07C680.149 429.083 680.219 429.09 680.292 429.09C680.606 429.09 680.856 429.01 681.042 428.85C681.229 428.697 681.372 428.497 681.472 428.25L681.592 427.94L679.392 423.09H680.542L681.552 425.5C681.646 425.72 681.736 425.953 681.822 426.2C681.909 426.447 681.999 426.693 682.092 426.94H682.132C682.206 426.707 682.286 426.467 682.372 426.22C682.459 425.973 682.542 425.733 682.622 425.5L683.512 423.09H684.602L682.552 428.22C682.446 428.5 682.326 428.75 682.192 428.97C682.066 429.19 681.916 429.377 681.742 429.53C681.569 429.69 681.369 429.81 681.142 429.89C680.916 429.977 680.656 430.02 680.362 430.02ZM685.868 428V427.06H687.638V422.88H686.228V422.16C686.428 422.133 686.608 422.103 686.768 422.07C686.928 422.03 687.075 421.99 687.208 421.95C687.348 421.91 687.478 421.863 687.598 421.81C687.718 421.757 687.835 421.7 687.948 421.64H688.788V427.06H690.348V428H685.868ZM691.864 428V427.06H693.634V422.88H692.224V422.16C692.424 422.133 692.604 422.103 692.764 422.07C692.924 422.03 693.071 421.99 693.204 421.95C693.344 421.91 693.474 421.863 693.594 421.81C693.714 421.757 693.831 421.7 693.944 421.64H694.784V427.06H696.344V428H691.864Z" fill="#F2F2F2"/>
</g>
<defs>
<filter id="filter0_dd" x="0" y="0" width="744" height="479" filterUnits="userSpaceOnUse" color-interpolation-filters="sRGB">
<feFlood flood-opacity="0" result="BackgroundImageFix"/>
<feColorMatrix in="SourceAlpha" type="matrix" values="0 0 0 0 0 0 0 0 0 0 0 0 0 0 0 0 0 0 127 0"/>
<feMorphology radius="1" operator="erode" in="SourceAlpha" result="effect1_dropShadow"/>
<feOffset dy="3"/>
<feGaussianBlur stdDeviation="4"/>
<feColorMatrix type="matrix" values="0 0 0 0 0.196078 0 0 0 0 0.196078 0 0 0 0 0.278431 0 0 0 0.05 0"/>
<feBlend mode="normal" in2="BackgroundImageFix" result="effect1_dropShadow"/>
<feColorMatrix in="SourceAlpha" type="matrix" values="0 0 0 0 0 0 0 0 0 0 0 0 0 0 0 0 0 0 127 0"/>
<feOffset/>
<feGaussianBlur stdDeviation="0.5"/>
<feColorMatrix type="matrix" values="0 0 0 0 0.0470588 0 0 0 0 0.101961 0 0 0 0 0.294118 0 0 0 0.24 0"/>
<feBlend mode="normal" in2="effect1_dropShadow" result="effect2_dropShadow"/>
<feBlend mode="normal" in="SourceGraphic" in2="effect2_dropShadow" result="shape"/>
</filter>
</defs>
</svg>
