<svg version="1.1" id="Layer_1" xmlns="http://www.w3.org/2000/svg" x="0px" y="0px"
	 viewBox="0 0 219.9 32.5" >
<style type="text/css">
	.st0{fill:#FFFFFF;}
	.st1{fill:#BDBDBD;}
	.st2{fill:#8247E5;}
</style>
<path class="st0" d="M52.9,25.5c-1.4,0-2.7-0.3-3.6-1s-1.7-1.6-2.2-2.8c-0.5-1.2-0.7-2.5-0.7-3.9s0.2-2.8,0.7-3.9s1.2-2.1,2.1-2.8
	s2.1-1,3.5-1s2.6,0.3,3.6,1s1.8,1.6,2.4,2.7c0.6,1.2,0.9,2.5,0.9,4s-0.3,2.8-0.9,3.9c-0.6,1.2-1.3,2.1-2.3,2.8S54.2,25.5,52.9,25.5z
	 M45.7,31.5v-21H49v10h0.5v11.1h-3.8V31.5z M52.3,22.2c0.8,0,1.4-0.2,1.9-0.6s0.9-0.9,1.1-1.6c0.2-0.7,0.4-1.4,0.4-2.2
	c0-0.8-0.1-1.5-0.4-2.2c-0.3-0.7-0.6-1.2-1.2-1.6c-0.5-0.4-1.2-0.6-2-0.6s-1.4,0.2-1.9,0.6c-0.5,0.4-0.8,0.9-1,1.6
	C49,16.4,48.9,17,48.9,18c0,0.9,0.1,1.7,0.3,2.3s0.6,1.2,1.1,1.6C50.8,22,51.5,22.2,52.3,22.2z M69.2,25.5c-1.5,0-2.8-0.3-3.9-1
	s-2-1.6-2.6-2.7c-0.6-1.2-0.9-2.5-0.9-4s0.3-2.9,0.9-4c0.6-1.2,1.5-2.1,2.6-2.7c1.1-0.6,2.4-1,3.8-1c1.5,0,2.8,0.3,3.9,1
	s2,1.6,2.6,2.7c0.6,1.2,0.9,2.5,0.9,4s-0.3,2.8-0.9,4s-1.5,2.1-2.6,2.7S70.6,25.5,69.2,25.5z M69.2,22c1.2,0,2.1-0.4,2.6-1.2
	c0.6-0.8,0.9-1.8,0.9-3.1c0-1.3-0.3-2.3-0.9-3.1s-1.5-1.2-2.6-1.2c-0.8,0-1.5,0.2-2,0.5c-0.5,0.4-0.9,0.9-1.1,1.5s-0.4,1.4-0.4,2.2
	c0,1.3,0.3,2.3,0.9,3.1C67.1,21.6,68,22,69.2,22z M79.8,25V5.2h3.7V25H79.8z M89.4,31.5l2.8-7.7l0.1,2.3l-6.4-15.6h3.8l4.3,11h-0.9
	l4.2-11h3.7l-8.2,21.1h-3.4V31.5z M108.6,31.9c-0.8,0-1.6-0.1-2.4-0.4c-0.7-0.3-1.4-0.6-2-1.1s-1.1-1-1.4-1.6l3.4-1.6
	c0.2,0.4,0.6,0.8,1,1s0.9,0.3,1.4,0.3s1.1-0.1,1.6-0.3c0.5-0.2,0.9-0.5,1.2-0.8c0.3-0.4,0.4-0.8,0.4-1.4v-4.2h0.5V10.6h3.2v15.6
	c0,0.4,0,0.7-0.1,1c0,0.3-0.1,0.6-0.2,1c-0.2,0.9-0.7,1.6-1.3,2.2c-0.6,0.6-1.4,1-2.3,1.3C110.7,31.9,109.7,31.9,108.6,31.9z
	 M108.3,25.5c-1.3,0-2.5-0.3-3.5-1s-1.8-1.6-2.4-2.8c-0.6-1.2-0.8-2.5-0.8-3.9c0-1.5,0.3-2.8,0.9-4s1.4-2.1,2.4-2.7
	c1-0.7,2.2-1,3.6-1s2.6,0.3,3.5,1s1.7,1.6,2.1,2.8s0.7,2.5,0.7,3.9s-0.2,2.8-0.7,3.9c-0.5,1.2-1.2,2.1-2.2,2.8
	S109.7,25.5,108.3,25.5z M108.9,22.2c0.8,0,1.5-0.2,2-0.6s0.9-0.9,1.1-1.6s0.3-1.4,0.3-2.3c0-0.9-0.1-1.7-0.3-2.3
	c-0.2-0.7-0.6-1.2-1-1.6c-0.5-0.4-1.1-0.6-1.8-0.6c-0.8,0-1.5,0.2-2,0.6c-0.5,0.4-0.9,0.9-1.2,1.6c-0.3,0.7-0.4,1.4-0.4,2.2
	c0,0.8,0.1,1.6,0.4,2.2c0.2,0.7,0.6,1.2,1.1,1.6C107.4,22,108.1,22.2,108.9,22.2z M125.8,25.5c-1.5,0-2.8-0.3-3.9-1s-2-1.6-2.6-2.7
	c-0.6-1.2-0.9-2.5-0.9-4s0.3-2.9,0.9-4c0.6-1.2,1.5-2.1,2.6-2.7c1.1-0.6,2.4-1,3.8-1c1.5,0,2.8,0.3,3.9,1s2,1.6,2.6,2.7
	c0.6,1.2,0.9,2.5,0.9,4s-0.3,2.8-0.9,4c-0.6,1.2-1.5,2.1-2.6,2.7S127.2,25.5,125.8,25.5z M125.8,22c1.2,0,2.1-0.4,2.6-1.2
	c0.6-0.8,0.9-1.8,0.9-3.1c0-1.3-0.3-2.3-0.9-3.1c-0.6-0.8-1.5-1.2-2.6-1.2c-0.8,0-1.5,0.2-2,0.5c-0.5,0.4-0.9,0.9-1.1,1.5
	s-0.4,1.4-0.4,2.2c0,1.3,0.3,2.3,0.9,3.1C123.8,21.6,124.6,22,125.8,22z M146.1,25v-6.9c0-0.3,0-0.8-0.1-1.3c0-0.5-0.1-1-0.3-1.6
	c-0.2-0.5-0.5-1-0.9-1.3c-0.4-0.4-1-0.5-1.8-0.5c-0.3,0-0.7,0-1,0.1s-0.7,0.3-1,0.6s-0.6,0.7-0.8,1.2s-0.3,1.3-0.3,2.2l-2.1-1
	c0-1.2,0.2-2.2,0.7-3.2s1.2-1.8,2.1-2.4c0.9-0.6,2.1-0.9,3.6-0.9c1.1,0,2.1,0.2,2.8,0.6c0.7,0.4,1.3,0.9,1.7,1.5s0.7,1.2,0.9,1.9
	c0.2,0.6,0.3,1.2,0.3,1.8c0,0.6,0.1,0.9,0.1,1.2v8.2h-3.9V25z M136.1,25V10.6h3.3v4.8h0.5v9.7C139.9,25.1,136.1,25.1,136.1,25z"/>
<path class="st1" d="M159,25.2c-1.8,0-3.3-0.4-4.5-1.2c-1.1-0.8-1.8-2-2.1-3.5l3.8-0.6c0.2,0.7,0.5,1.2,1,1.6s1.2,0.6,2,0.6
	c0.7,0,1.2-0.1,1.5-0.4c0.4-0.3,0.5-0.6,0.5-1.1c0-0.3-0.1-0.5-0.2-0.7c-0.1-0.2-0.5-0.4-1-0.5c-0.5-0.2-1.3-0.4-2.3-0.7
	c-1.2-0.3-2.1-0.6-2.8-1s-1.2-0.8-1.5-1.4c-0.3-0.5-0.5-1.2-0.5-1.9c0-0.9,0.2-1.7,0.7-2.4s1.1-1.2,2-1.6c0.9-0.4,1.9-0.6,3.1-0.6
	c1.1,0,2.2,0.2,3,0.5s1.6,0.9,2.1,1.5s0.9,1.4,1,2.3l-3.8,0.7c-0.1-0.5-0.3-1-0.7-1.3s-1-0.5-1.6-0.6c-0.7,0-1.2,0-1.6,0.3
	c-0.4,0.2-0.6,0.5-0.6,1c0,0.3,0.1,0.5,0.3,0.6c0.2,0.2,0.5,0.3,1.1,0.5s1.4,0.4,2.5,0.7c1.1,0.3,2,0.6,2.7,1s1.2,0.8,1.5,1.4
	c0.3,0.5,0.5,1.2,0.5,1.9c0,1.5-0.5,2.7-1.6,3.5C162.4,24.8,160.9,25.2,159,25.2z M176.8,24.8c-1,0.2-2,0.3-3,0.2
	c-1,0-1.8-0.2-2.6-0.5s-1.3-0.8-1.7-1.6c-0.4-0.7-0.5-1.3-0.6-2c0-0.7,0-1.5,0-2.3V6.1h3.7v12.2c0,0.6,0,1.1,0,1.5
	c0,0.5,0.1,0.8,0.3,1.1c0.3,0.5,0.8,0.8,1.6,0.8s1.5,0,2.4-0.1L176.8,24.8L176.8,24.8z M166.5,13v-2.8h10.4V13H166.5z M184.1,25.2
	c-1,0-1.9-0.2-2.7-0.6c-0.7-0.4-1.3-0.9-1.6-1.6c-0.4-0.7-0.6-1.4-0.6-2.2c0-0.7,0.1-1.3,0.3-1.8c0.2-0.6,0.5-1,1-1.5
	c0.5-0.4,1.1-0.8,1.9-1.1c0.5-0.2,1.2-0.4,1.9-0.5c0.7-0.2,1.6-0.3,2.5-0.4c0.9-0.1,2-0.3,3.1-0.5l-1.3,0.7c0-0.9-0.2-1.5-0.6-1.9
	s-1.1-0.6-2.1-0.6c-0.5,0-1.1,0.1-1.7,0.4c-0.6,0.3-1,0.7-1.2,1.4l-3.3-1.1c0.4-1.2,1.1-2.2,2.1-2.9c1-0.8,2.4-1.1,4.2-1.1
	c1.3,0,2.4,0.2,3.4,0.6c1,0.4,1.8,1.1,2.3,2.1c0.3,0.5,0.5,1.1,0.5,1.6s0.1,1.1,0.1,1.8v8.9h-3.2v-3l0.5,0.6c-0.7,1-1.5,1.7-2.3,2.1
	C186.4,25,185.4,25.2,184.1,25.2z M184.9,22.3c0.7,0,1.2-0.1,1.7-0.4c0.5-0.2,0.8-0.5,1.1-0.8s0.5-0.6,0.6-0.8
	c0.2-0.4,0.3-0.9,0.3-1.4s0.1-1,0.1-1.3l1.1,0.3c-1.1,0.2-2,0.3-2.6,0.5c-0.7,0.1-1.2,0.2-1.6,0.3c-0.4,0.1-0.8,0.2-1.1,0.3
	c-0.4,0.1-0.7,0.3-0.9,0.5s-0.4,0.3-0.5,0.5s-0.1,0.4-0.1,0.7c0,0.3,0.1,0.6,0.2,0.9c0.2,0.2,0.4,0.4,0.7,0.5S184.5,22.3,184.9,22.3
	z M204.6,24.8c-1,0.2-2,0.3-3,0.2c-1,0-1.8-0.2-2.6-0.5s-1.3-0.8-1.7-1.6c-0.4-0.7-0.5-1.3-0.6-2c0-0.7,0-1.5,0-2.3V6.1h3.7v12.2
	c0,0.6,0,1.1,0,1.5c0,0.5,0.1,0.8,0.3,1.1c0.3,0.5,0.8,0.8,1.6,0.8s1.5,0,2.4-0.1L204.6,24.8L204.6,24.8z M194.2,13v-2.8h10.4V13
	H194.2z M213.5,25.2c-1.8,0-3.3-0.4-4.5-1.2c-1.1-0.8-1.8-2-2.1-3.5l3.8-0.6c0.2,0.7,0.5,1.2,1,1.6s1.2,0.6,2,0.6
	c0.7,0,1.2-0.1,1.5-0.4c0.4-0.3,0.5-0.6,0.5-1.1c0-0.3-0.1-0.5-0.2-0.7c-0.1-0.2-0.5-0.4-1-0.5c-0.5-0.2-1.3-0.4-2.3-0.7
	c-1.2-0.3-2.1-0.6-2.8-1s-1.2-0.8-1.5-1.4c-0.3-0.5-0.5-1.2-0.5-1.9c0-0.9,0.2-1.7,0.7-2.4s1.1-1.2,2-1.6c0.9-0.4,1.9-0.6,3.1-0.6
	c1.1,0,2.2,0.2,3,0.5c0.9,0.4,1.6,0.9,2.1,1.5s0.9,1.4,1,2.3l-3.8,0.7c-0.1-0.5-0.3-1-0.7-1.3s-1-0.5-1.6-0.6c-0.7,0-1.2,0-1.6,0.3
	c-0.4,0.2-0.6,0.5-0.6,1c0,0.3,0.1,0.5,0.3,0.6c0.2,0.2,0.5,0.3,1.1,0.5s1.4,0.4,2.5,0.7c1.1,0.3,2,0.6,2.7,1s1.2,0.8,1.5,1.4
	c0.3,0.5,0.5,1.2,0.5,1.9c0,1.5-0.5,2.7-1.6,3.5C216.9,24.8,215.4,25.2,213.5,25.2z"/>
<path class="st2" d="M28.1,9.8c-0.7-0.4-1.6-0.4-2.3,0l-5.3,3.1l-3.6,2L11.7,18c-0.7,0.4-1.6,0.4-2.3,0l-4.2-2.4
	c-0.7-0.4-1.1-1.1-1.1-2V8.8c0-0.8,0.4-1.6,1.1-2l4.1-2.4C10,4,10.9,4,11.6,4.4l4.1,2.4c0.7,0.4,1.1,1.1,1.1,2v3.1l3.6-2.1V6.7
	c0-0.8-0.4-1.6-1.1-2l-7.6-4.5c-0.7-0.4-1.6-0.4-2.3,0L1.7,4.8C1,5.2,0.5,5.9,0.5,6.7v9c0,0.8,0.4,1.6,1.1,2l7.8,4.5
	c0.7,0.4,1.6,0.4,2.3,0l5.3-3l3.6-2.1l5.3-3c0.7-0.4,1.6-0.4,2.3,0l4.1,2.4c0.7,0.4,1.1,1.1,1.1,2v4.8c0,0.8-0.4,1.6-1.1,2l-4.1,2.4
	c-0.7,0.4-1.6,0.4-2.3,0l-4.1-2.4c-0.7-0.4-1.1-1.1-1.1-2V20L17,22.1v3.1c0,0.8,0.4,1.6,1.1,2l7.8,4.5c0.7,0.4,1.6,0.4,2.3,0
	l7.8-4.5c0.7-0.4,1.1-1.1,1.1-2v-9c0-0.8-0.4-1.6-1.1-2L28.1,9.8z"/>
</svg>
