<svg width="37" height="32" viewBox="0 0 37 32" fill="none" xmlns="http://www.w3.org/2000/svg">
<path d="M27.6012 9.78909C26.9264 9.38403 26.0491 9.38403 25.3067 9.78909L20.0429 12.8946L16.4663 14.9199L11.2025 18.0254C10.5276 18.4304 9.65031 18.4304 8.90798 18.0254L4.72393 15.595C4.04908 15.1899 3.57669 14.4473 3.57669 13.6372V8.84394C3.57669 8.03381 3.98159 7.2912 4.72393 6.88614L8.84049 4.52327C9.51534 4.1182 10.3926 4.1182 11.135 4.52327L15.2515 6.88614C15.9264 7.2912 16.3988 8.03381 16.3988 8.84394V11.9494L19.9755 9.8566V6.75111C19.9755 5.94099 19.5706 5.19837 18.8282 4.79331L11.2025 0.337611C10.5276 -0.0674524 9.65031 -0.0674524 8.90798 0.337611L1.14724 4.79331C0.404908 5.19837 0 5.94099 0 6.75111V15.73C0 16.5401 0.404908 17.2828 1.14724 17.6878L8.90798 22.1435C9.58282 22.5486 10.4601 22.5486 11.2025 22.1435L16.4663 19.1055L20.0429 17.0127L25.3067 13.9747C25.9816 13.5697 26.8589 13.5697 27.6012 13.9747L31.7178 16.3376C32.3926 16.7427 32.865 17.4853 32.865 18.2954V23.0887C32.865 23.8988 32.4601 24.6414 31.7178 25.0465L27.6012 27.4769C26.9264 27.8819 26.0491 27.8819 25.3067 27.4769L21.1902 25.114C20.5153 24.7089 20.0429 23.9663 20.0429 23.1562V20.0507L16.4663 22.1435V25.249C16.4663 26.0591 16.8712 26.8018 17.6135 27.2068L25.3742 31.6625C26.0491 32.0676 26.9264 32.0676 27.6687 31.6625L35.4294 27.2068C36.1043 26.8018 36.5767 26.0591 36.5767 25.249V16.2701C36.5767 15.46 36.1718 14.7174 35.4294 14.3123L27.6012 9.78909Z" fill="#8247E5"/>
</svg>
