<svg width="175" height="27" viewBox="0 0 175 27" fill="none" xmlns="http://www.w3.org/2000/svg">
<path d="M8.045 20.405C6.596 20.405 5.3855 20.0675 4.4135 19.3925C3.4415 18.7175 2.708 17.7995 2.213 16.6385C1.727 15.4775 1.484 14.168 1.484 12.71C1.484 11.252 1.727 9.9425 2.213 8.7815C2.699 7.6205 3.4145 6.7025 4.3595 6.0275C5.3045 5.3525 6.47 5.015 7.856 5.015C9.251 5.015 10.466 5.348 11.501 6.014C12.536 6.68 13.337 7.5935 13.904 8.7545C14.48 9.9065 14.768 11.225 14.768 12.71C14.768 14.168 14.4845 15.4775 13.9175 16.6385C13.3595 17.7995 12.5765 18.7175 11.5685 19.3925C10.5605 20.0675 9.386 20.405 8.045 20.405ZM0.863 26.48V5.42H4.103V15.41H4.562V26.48H0.863ZM7.451 17.138C8.243 17.138 8.891 16.94 9.395 16.544C9.899 16.148 10.2725 15.617 10.5155 14.951C10.7585 14.276 10.88 13.529 10.88 12.71C10.88 11.9 10.754 11.162 10.502 10.496C10.25 9.821 9.8585 9.2855 9.3275 8.8895C8.8055 8.4845 8.135 8.282 7.316 8.282C6.551 8.282 5.93 8.4665 5.453 8.8355C4.985 9.2045 4.643 9.722 4.427 10.388C4.211 11.054 4.103 11.828 4.103 12.71C4.103 13.592 4.211 14.366 4.427 15.032C4.643 15.698 4.994 16.2155 5.48 16.5845C5.975 16.9535 6.632 17.138 7.451 17.138ZM24.2996 20.405C22.8326 20.405 21.5456 20.0765 20.4386 19.4195C19.3316 18.7625 18.4676 17.858 17.8466 16.706C17.2346 15.545 16.9286 14.213 16.9286 12.71C16.9286 11.189 17.2436 9.8525 17.8736 8.7005C18.5036 7.5395 19.3721 6.635 20.4791 5.987C21.5861 5.339 22.8596 5.015 24.2996 5.015C25.7666 5.015 27.0536 5.3435 28.1606 6.0005C29.2766 6.6575 30.1451 7.5665 30.7661 8.7275C31.3871 9.8795 31.6976 11.207 31.6976 12.71C31.6976 14.222 31.3826 15.5585 30.7526 16.7195C30.1316 17.8715 29.2631 18.776 28.1471 19.433C27.0401 20.081 25.7576 20.405 24.2996 20.405ZM24.2996 16.976C25.4786 16.976 26.3561 16.58 26.9321 15.788C27.5171 14.987 27.8096 13.961 27.8096 12.71C27.8096 11.414 27.5126 10.379 26.9186 9.605C26.3336 8.831 25.4606 8.444 24.2996 8.444C23.4986 8.444 22.8416 8.624 22.3286 8.984C21.8156 9.344 21.4331 9.8435 21.1811 10.4825C20.9381 11.1215 20.8166 11.864 20.8166 12.71C20.8166 14.015 21.1091 15.0545 21.6941 15.8285C22.2881 16.5935 23.1566 16.976 24.2996 16.976ZM34.9364 20V0.155H38.6084V20H34.9364ZM44.5186 26.48L47.3266 18.758L47.3806 21.026L41.0356 5.42H44.8426L49.1086 16.463H48.2446L52.4836 5.42H56.1556L47.9206 26.48H44.5186ZM63.7637 26.885C62.9357 26.885 62.1482 26.75 61.4012 26.48C60.6542 26.219 59.9837 25.85 59.3897 25.373C58.8047 24.905 58.3277 24.356 57.9587 23.726L61.3607 22.079C61.5947 22.511 61.9277 22.8395 62.3597 23.0645C62.8007 23.2895 63.2777 23.402 63.7907 23.402C64.3397 23.402 64.8572 23.3075 65.3432 23.1185C65.8292 22.9385 66.2162 22.664 66.5042 22.295C66.8012 21.935 66.9407 21.485 66.9227 20.945V16.706H67.3817V5.42H70.5947V20.999C70.5947 21.359 70.5767 21.6965 70.5407 22.0115C70.5137 22.3355 70.4597 22.655 70.3787 22.97C70.1447 23.861 69.7082 24.5945 69.0692 25.1705C68.4392 25.7465 67.6652 26.174 66.7472 26.453C65.8292 26.741 64.8347 26.885 63.7637 26.885ZM63.4397 20.405C62.0987 20.405 60.9242 20.0675 59.9162 19.3925C58.9082 18.7175 58.1207 17.7995 57.5537 16.6385C56.9957 15.4775 56.7167 14.168 56.7167 12.71C56.7167 11.225 57.0002 9.9065 57.5672 8.7545C58.1432 7.5935 58.9487 6.68 59.9837 6.014C61.0187 5.348 62.2337 5.015 63.6287 5.015C65.0147 5.015 66.1802 5.3525 67.1252 6.0275C68.0702 6.7025 68.7857 7.6205 69.2717 8.7815C69.7577 9.9425 70.0007 11.252 70.0007 12.71C70.0007 14.168 69.7532 15.4775 69.2582 16.6385C68.7722 17.7995 68.0432 18.7175 67.0712 19.3925C66.0992 20.0675 64.8887 20.405 63.4397 20.405ZM64.0337 17.138C64.8527 17.138 65.5052 16.9535 65.9912 16.5845C66.4862 16.2155 66.8417 15.698 67.0577 15.032C67.2737 14.366 67.3817 13.592 67.3817 12.71C67.3817 11.828 67.2737 11.054 67.0577 10.388C66.8417 9.722 66.4952 9.2045 66.0182 8.8355C65.5502 8.4665 64.9337 8.282 64.1687 8.282C63.3497 8.282 62.6747 8.4845 62.1437 8.8895C61.6217 9.2855 61.2347 9.821 60.9827 10.496C60.7307 11.162 60.6047 11.9 60.6047 12.71C60.6047 13.529 60.7262 14.276 60.9692 14.951C61.2122 15.617 61.5857 16.148 62.0897 16.544C62.5937 16.94 63.2417 17.138 64.0337 17.138ZM80.9364 20.405C79.4694 20.405 78.1824 20.0765 77.0754 19.4195C75.9684 18.7625 75.1044 17.858 74.4834 16.706C73.8714 15.545 73.5654 14.213 73.5654 12.71C73.5654 11.189 73.8804 9.8525 74.5104 8.7005C75.1404 7.5395 76.0089 6.635 77.1159 5.987C78.2229 5.339 79.4964 5.015 80.9364 5.015C82.4034 5.015 83.6904 5.3435 84.7974 6.0005C85.9134 6.6575 86.7819 7.5665 87.4029 8.7275C88.0239 9.8795 88.3344 11.207 88.3344 12.71C88.3344 14.222 88.0194 15.5585 87.3894 16.7195C86.7684 17.8715 85.8999 18.776 84.7839 19.433C83.6769 20.081 82.3944 20.405 80.9364 20.405ZM80.9364 16.976C82.1154 16.976 82.9929 16.58 83.5689 15.788C84.1539 14.987 84.4464 13.961 84.4464 12.71C84.4464 11.414 84.1494 10.379 83.5554 9.605C82.9704 8.831 82.0974 8.444 80.9364 8.444C80.1354 8.444 79.4784 8.624 78.9654 8.984C78.4524 9.344 78.0699 9.8435 77.8179 10.4825C77.5749 11.1215 77.4534 11.864 77.4534 12.71C77.4534 14.015 77.7459 15.0545 78.3309 15.8285C78.9249 16.5935 79.7934 16.976 80.9364 16.976ZM101.239 20V13.115C101.239 12.782 101.221 12.359 101.185 11.846C101.149 11.324 101.037 10.802 100.848 10.28C100.659 9.758 100.348 9.3215 99.9161 8.9705C99.4931 8.6195 98.8901 8.444 98.1071 8.444C97.7921 8.444 97.4546 8.4935 97.0946 8.5925C96.7346 8.6915 96.3971 8.885 96.0821 9.173C95.7671 9.452 95.5061 9.866 95.2991 10.415C95.1011 10.964 95.0021 11.693 95.0021 12.602L92.8961 11.603C92.8961 10.451 93.1301 9.371 93.5981 8.363C94.0661 7.355 94.7681 6.5405 95.7041 5.9195C96.6491 5.2985 97.8371 4.988 99.2681 4.988C100.411 4.988 101.343 5.1815 102.063 5.5685C102.783 5.9555 103.341 6.446 103.737 7.04C104.142 7.634 104.43 8.255 104.601 8.903C104.772 9.542 104.875 10.127 104.911 10.658C104.947 11.189 104.965 11.576 104.965 11.819V20H101.239ZM91.2761 20V5.42H94.5431V10.253H95.0021V20H91.2761Z" fill="white"/>
<path d="M114.165 20.405C112.329 20.405 110.844 19.991 109.71 19.163C108.585 18.326 107.901 17.147 107.658 15.626L111.411 15.059C111.564 15.743 111.902 16.2785 112.424 16.6655C112.955 17.0525 113.625 17.246 114.435 17.246C115.101 17.246 115.614 17.12 115.974 16.868C116.334 16.607 116.514 16.247 116.514 15.788C116.514 15.5 116.442 15.2705 116.298 15.0995C116.154 14.9195 115.83 14.744 115.326 14.573C114.831 14.402 114.057 14.177 113.004 13.898C111.816 13.592 110.867 13.25 110.156 12.872C109.445 12.494 108.932 12.044 108.617 11.522C108.302 10.991 108.144 10.352 108.144 9.605C108.144 8.669 108.383 7.859 108.86 7.175C109.337 6.482 110.007 5.951 110.871 5.582C111.744 5.204 112.77 5.015 113.949 5.015C115.092 5.015 116.105 5.1905 116.987 5.5415C117.869 5.8925 118.58 6.392 119.12 7.04C119.669 7.688 120.006 8.453 120.132 9.335L116.379 10.01C116.316 9.47 116.082 9.0425 115.677 8.7275C115.272 8.4125 114.723 8.228 114.03 8.174C113.355 8.129 112.811 8.219 112.397 8.444C111.992 8.669 111.789 8.993 111.789 9.416C111.789 9.668 111.875 9.8795 112.046 10.0505C112.226 10.2215 112.59 10.397 113.139 10.577C113.697 10.757 114.543 10.991 115.677 11.279C116.784 11.567 117.671 11.9045 118.337 12.2915C119.012 12.6695 119.502 13.1285 119.808 13.6685C120.114 14.1995 120.267 14.843 120.267 15.599C120.267 17.093 119.727 18.2675 118.647 19.1225C117.567 19.9775 116.073 20.405 114.165 20.405ZM131.982 20C130.974 20.189 129.984 20.27 129.012 20.243C128.049 20.225 127.185 20.0585 126.42 19.7435C125.664 19.4195 125.088 18.902 124.692 18.191C124.332 17.525 124.143 16.85 124.125 16.166C124.107 15.473 124.098 14.69 124.098 13.817V1.37H127.77V13.601C127.77 14.168 127.774 14.681 127.783 15.14C127.801 15.59 127.896 15.95 128.067 16.22C128.391 16.733 128.908 17.012 129.619 17.057C130.33 17.102 131.118 17.066 131.982 16.949V20ZM121.614 8.255V5.42H131.982V8.255H121.614ZM139.281 20.405C138.237 20.405 137.35 20.207 136.621 19.811C135.901 19.406 135.352 18.8705 134.974 18.2045C134.605 17.5295 134.421 16.787 134.421 15.977C134.421 15.302 134.524 14.6855 134.731 14.1275C134.938 13.5695 135.271 13.079 135.73 12.656C136.198 12.224 136.824 11.864 137.607 11.576C138.147 11.378 138.79 11.2025 139.537 11.0495C140.284 10.8965 141.13 10.7525 142.075 10.6175C143.02 10.4735 144.06 10.316 145.194 10.145L143.871 10.874C143.871 10.01 143.664 9.3755 143.25 8.9705C142.836 8.5655 142.143 8.363 141.171 8.363C140.631 8.363 140.068 8.4935 139.483 8.7545C138.898 9.0155 138.489 9.479 138.255 10.145L134.934 9.092C135.303 7.886 135.996 6.905 137.013 6.149C138.03 5.393 139.416 5.015 141.171 5.015C142.458 5.015 143.601 5.213 144.6 5.609C145.599 6.005 146.355 6.689 146.868 7.661C147.156 8.201 147.327 8.741 147.381 9.281C147.435 9.821 147.462 10.424 147.462 11.09V20H144.249V17.003L144.708 17.624C143.997 18.605 143.227 19.316 142.399 19.757C141.58 20.189 140.541 20.405 139.281 20.405ZM140.064 17.516C140.739 17.516 141.306 17.399 141.765 17.165C142.233 16.922 142.602 16.6475 142.872 16.3415C143.151 16.0355 143.34 15.779 143.439 15.572C143.628 15.176 143.736 14.717 143.763 14.195C143.799 13.664 143.817 13.223 143.817 12.872L144.897 13.142C143.808 13.322 142.926 13.475 142.251 13.601C141.576 13.718 141.031 13.826 140.617 13.925C140.203 14.024 139.839 14.132 139.524 14.249C139.164 14.393 138.871 14.5505 138.646 14.7215C138.43 14.8835 138.268 15.0635 138.16 15.2615C138.061 15.4595 138.012 15.68 138.012 15.923C138.012 16.256 138.093 16.544 138.255 16.787C138.426 17.021 138.664 17.201 138.97 17.327C139.276 17.453 139.641 17.516 140.064 17.516ZM159.72 20C158.712 20.189 157.722 20.27 156.75 20.243C155.787 20.225 154.923 20.0585 154.158 19.7435C153.402 19.4195 152.826 18.902 152.43 18.191C152.07 17.525 151.881 16.85 151.863 16.166C151.845 15.473 151.836 14.69 151.836 13.817V1.37H155.508V13.601C155.508 14.168 155.513 14.681 155.522 15.14C155.54 15.59 155.634 15.95 155.805 16.22C156.129 16.733 156.647 17.012 157.358 17.057C158.069 17.102 158.856 17.066 159.72 16.949V20ZM149.352 8.255V5.42H159.72V8.255H149.352ZM168.666 20.405C166.83 20.405 165.345 19.991 164.211 19.163C163.086 18.326 162.402 17.147 162.159 15.626L165.912 15.059C166.065 15.743 166.403 16.2785 166.925 16.6655C167.456 17.0525 168.126 17.246 168.936 17.246C169.602 17.246 170.115 17.12 170.475 16.868C170.835 16.607 171.015 16.247 171.015 15.788C171.015 15.5 170.943 15.2705 170.799 15.0995C170.655 14.9195 170.331 14.744 169.827 14.573C169.332 14.402 168.558 14.177 167.505 13.898C166.317 13.592 165.368 13.25 164.657 12.872C163.946 12.494 163.433 12.044 163.118 11.522C162.803 10.991 162.645 10.352 162.645 9.605C162.645 8.669 162.884 7.859 163.361 7.175C163.838 6.482 164.508 5.951 165.372 5.582C166.245 5.204 167.271 5.015 168.45 5.015C169.593 5.015 170.606 5.1905 171.488 5.5415C172.37 5.8925 173.081 6.392 173.621 7.04C174.17 7.688 174.507 8.453 174.633 9.335L170.88 10.01C170.817 9.47 170.583 9.0425 170.178 8.7275C169.773 8.4125 169.224 8.228 168.531 8.174C167.856 8.129 167.312 8.219 166.898 8.444C166.493 8.669 166.29 8.993 166.29 9.416C166.29 9.668 166.376 9.8795 166.547 10.0505C166.727 10.2215 167.091 10.397 167.64 10.577C168.198 10.757 169.044 10.991 170.178 11.279C171.285 11.567 172.172 11.9045 172.838 12.2915C173.513 12.6695 174.003 13.1285 174.309 13.6685C174.615 14.1995 174.768 14.843 174.768 15.599C174.768 17.093 174.228 18.2675 173.148 19.1225C172.068 19.9775 170.574 20.405 168.666 20.405Z" fill="#BDBDBD"/>
</svg>
